<svg xmlns="http://www.w3.org/2000/svg" width="150" height="150"><g transform="translate(-645 -3014)"><g fill="none" stroke="#2b5cab" data-name="Ellipse 11" transform="translate(645 3014)"><circle cx="75" cy="75" r="75" stroke="none"/><circle cx="75" cy="75" r="74.5"/></g><circle cx="67" cy="67" r="67" fill="#2b5cab" data-name="Ellipse 10" transform="translate(653 3022)"/><text fill="#fff" font-family="AktivGrotesk-Black, Aktiv Grotesk" font-size="36" font-weight="800" letter-spacing=".005em" transform="translate(720 3081)"><tspan x="-41.202" y="0">ADA</tspan></text><text fill="#fff" font-family="AktivGroteskCd-Regular, Aktiv Grotesk Cd" font-size="17" letter-spacing=".005em" transform="translate(720 3101)"><tspan x="-39.636" y="0">COMPLIANT</tspan></text><path fill="#fff" d="M719.061 3116.272a2.182 2.182 0 10-2.182-2.184 2.184 2.184 0 002.182 2.184zm1.541 20.007a6.781 6.781 0 01-6.73-6.839 6.861 6.861 0 012.359-5.176l-.123-2.14a8.657 8.657 0 004.49 15.969 8.942 8.942 0 007.852-5.455l-1.3-1.785a6.741 6.741 0 01-6.556 5.426zm13.306-4.191h-1.09l-4.364-6c-.236-.415-1.091-1.637-2.182-1.637h-4.91v-2.178h4.364c.565 0 1.175-.241 1.175-.822s-.594-.815-1.175-.815h-4.364v-2.182c-.08-1.21-1.091-1.637-2.177-1.611s-1.642.52-1.642 1.611v7.634c.1 1.225.986 1.637 2.182 1.637h6.546l3.819 4.91c.246.407 1.091 1.637 1.091 1.637h2.727a1.091 1.091 0 000-2.182z" data-name="Icon map-wheelchair"/></g></svg>