<svg xmlns="http://www.w3.org/2000/svg" width="210" height="140.982"><defs><style>.cls-1{fill:#fff}.cls-2{fill:#1a1818}.cls-4{fill:#e23e35}.cls-5{fill:#333}</style></defs><g id="icn-lifetime-warranty" transform="translate(-19.717 -144.7)"><g id="Group_93" data-name="Group 93" transform="translate(54.15 144.7)"><g id="Group_82" data-name="Group 82"><g id="Group_80" data-name="Group 80" transform="translate(.172 .172)"><path id="Path_53" d="M213.481 146.037a3.022 3.022 0 013.906 0l2.05 1.823a3.763 3.763 0 004.184.377l2.343-1.427a3.021 3.021 0 013.843.7l1.692 2.159a3.763 3.763 0 004.05 1.118l2.56-.986a3.022 3.022 0 013.657 1.372l1.279 2.427a3.763 3.763 0 003.785 1.823l2.7-.513a3.021 3.021 0 013.353 2l.825 2.616a3.764 3.764 0 003.4 2.47l2.743-.023a3.022 3.022 0 012.941 2.57l.345 2.722a3.762 3.762 0 002.9 3.037l2.7.467a3.022 3.022 0 012.435 3.054l-.147 2.739a3.764 3.764 0 002.315 3.507l2.576.942a3.021 3.021 0 011.851 3.439l-.633 2.669a3.762 3.762 0 001.651 3.863l2.367 1.387a3.022 3.022 0 011.207 3.715l-1.1 2.513a3.763 3.763 0 00.935 4.1l2.081 1.788a3.021 3.021 0 01.524 3.871l-1.53 2.277a3.763 3.763 0 00.188 4.2l1.729 2.13a3.022 3.022 0 01-.175 3.9l-1.913 1.967a3.763 3.763 0 00-.564 4.163l1.32 2.4a3.022 3.022 0 01-.869 3.808l-2.233 1.593a3.763 3.763 0 00-1.3 4l.87 2.6a3.021 3.021 0 01-1.535 3.592l-2.482 1.169a3.763 3.763 0 00-1.991 3.7l.391 2.715a3.021 3.021 0 01-2.152 3.26l-2.65.707a3.763 3.763 0 00-2.619 3.285l-.1 2.742a3.021 3.021 0 01-2.7 2.823l-2.734.223a3.763 3.763 0 00-3.164 2.764l-.588 2.68a3.021 3.021 0 01-3.16 2.3l-2.73-.269a3.763 3.763 0 00-3.607 2.155l-1.057 2.532a3.022 3.022 0 01-3.519 1.695l-2.638-.752a3.763 3.763 0 00-3.933 1.476l-1.492 2.3a3.021 3.021 0 01-3.765 1.039l-2.462-1.211a3.763 3.763 0 00-4.134.75l-1.879 2a3.022 3.022 0 01-3.89.35l-2.206-1.631a3.763 3.763 0 00-4.2 0l-2.206 1.631a3.022 3.022 0 01-3.89-.35l-1.879-2a3.763 3.763 0 00-4.134-.75l-2.462 1.211a3.021 3.021 0 01-3.755-1.048l-1.492-2.3a3.763 3.763 0 00-3.933-1.476l-2.638.752a3.022 3.022 0 01-3.519-1.695l-1.057-2.532a3.762 3.762 0 00-3.607-2.155l-2.73.269a3.021 3.021 0 01-3.16-2.3l-.588-2.68a3.764 3.764 0 00-3.164-2.764l-2.734-.223a3.021 3.021 0 01-2.7-2.823l-.1-2.742a3.763 3.763 0 00-2.619-3.285l-2.651-.707a3.021 3.021 0 01-2.152-3.26l.391-2.715a3.763 3.763 0 00-1.991-3.7l-2.482-1.169a3.021 3.021 0 01-1.535-3.592l.87-2.6a3.764 3.764 0 00-1.3-4l-2.233-1.593a3.022 3.022 0 01-.869-3.808l1.321-2.4a3.763 3.763 0 00-.564-4.163l-1.913-1.967a3.021 3.021 0 01-.175-3.9l1.728-2.13a3.763 3.763 0 00.189-4.2l-1.531-2.277a3.021 3.021 0 01.524-3.871l2.081-1.788a3.762 3.762 0 00.935-4.1l-1.1-2.513a3.022 3.022 0 011.207-3.715l2.367-1.387a3.763 3.763 0 001.651-3.863l-.633-2.669a3.021 3.021 0 011.851-3.439l2.576-.942a3.763 3.763 0 002.315-3.507l-.146-2.739a3.021 3.021 0 012.435-3.054l2.7-.467a3.763 3.763 0 002.9-3.037l.345-2.722a3.021 3.021 0 012.941-2.57l2.743.023a3.763 3.763 0 003.4-2.47l.826-2.616a3.021 3.021 0 013.353-2l2.7.513a3.763 3.763 0 003.785-1.823l1.279-2.427a3.021 3.021 0 013.657-1.372l2.56.986a3.763 3.763 0 004.05-1.118l1.692-2.159a3.021 3.021 0 013.843-.7l2.343 1.427a3.763 3.763 0 004.184-.377z" data-name="Path 53" transform="translate(-145.047 -145.321)"/></g><g id="Group_81" data-name="Group 81"><path id="Path_54" d="M221.018 285.682a3.074 3.074 0 01-1.829-.585l-2.205-1.632a3.574 3.574 0 00-4 0l-2.204 1.635a3.192 3.192 0 01-4.117-.37l-1.879-2a3.573 3.573 0 00-3.934-.714l-2.461 1.211a3.19 3.19 0 01-3.984-1.1l-1.492-2.3a3.575 3.575 0 00-3.743-1.4l-2.638.752a3.192 3.192 0 01-3.724-1.793l-1.056-2.532a3.569 3.569 0 00-3.432-2.05l-2.73.269a3.189 3.189 0 01-3.344-2.429l-.588-2.68a3.573 3.573 0 00-3.011-2.631l-2.734-.222a3.192 3.192 0 01-2.856-2.988l-.1-2.741a3.573 3.573 0 00-2.492-3.126l-2.65-.707a3.191 3.191 0 01-2.277-3.449l.392-2.716a3.574 3.574 0 00-1.894-3.52l-2.482-1.169a3.191 3.191 0 01-1.625-3.8l.87-2.6a3.574 3.574 0 00-1.235-3.8l-2.233-1.593a3.191 3.191 0 01-.92-4.03l1.32-2.4a3.574 3.574 0 00-.536-3.962l-1.913-1.966a3.191 3.191 0 01-.186-4.129l1.729-2.13a3.574 3.574 0 00.179-3.994L145.472 208a3.191 3.191 0 01.555-4.1l2.081-1.787a3.573 3.573 0 00.889-3.9l-1.1-2.513a3.191 3.191 0 011.277-3.931l2.367-1.387a3.573 3.573 0 001.571-3.676l-.633-2.669a3.191 3.191 0 011.958-3.64l2.576-.942a3.574 3.574 0 002.2-3.337l-.146-2.74a3.191 3.191 0 012.577-3.232l2.7-.467a3.573 3.573 0 002.763-2.89l.345-2.722a3.192 3.192 0 013.089-2.719h.024l2.743.023h.022a3.576 3.576 0 003.212-2.35l.826-2.616a3.192 3.192 0 013.548-2.12l2.7.513a3.574 3.574 0 003.6-1.735l1.279-2.427a3.193 3.193 0 013.87-1.452l2.56.986a3.574 3.574 0 003.854-1.064l1.692-2.159a3.191 3.191 0 014.067-.738l2.343 1.427a3.574 3.574 0 003.982-.358l2.05-1.823a3.191 3.191 0 014.133 0l2.05 1.823a3.574 3.574 0 003.982.358l2.343-1.427a3.192 3.192 0 014.067.738l1.692 2.159a3.574 3.574 0 003.854 1.064l2.56-.986a3.192 3.192 0 013.87 1.452l1.279 2.427a3.573 3.573 0 003.6 1.735l2.7-.513a3.191 3.191 0 013.548 2.12l.825 2.616a3.576 3.576 0 003.212 2.35h.022l2.743-.023h.024a3.192 3.192 0 013.089 2.719l.345 2.722a3.573 3.573 0 002.763 2.89l2.7.467a3.191 3.191 0 012.577 3.232l-.147 2.74a3.574 3.574 0 002.2 3.337l2.576.942a3.191 3.191 0 011.959 3.64l-.634 2.669a3.573 3.573 0 001.571 3.676l2.367 1.387a3.191 3.191 0 011.277 3.931l-1.1 2.513a3.574 3.574 0 00.89 3.9l2.081 1.787a3.191 3.191 0 01.555 4.1l-1.53 2.277a3.572 3.572 0 00.179 3.994l1.728 2.13a3.191 3.191 0 01-.185 4.129l-1.913 1.967a3.573 3.573 0 00-.536 3.962l1.32 2.4a3.191 3.191 0 01-.919 4.03l-2.233 1.593a3.574 3.574 0 00-1.236 3.8l.87 2.6a3.191 3.191 0 01-1.624 3.8l-2.482 1.169a3.574 3.574 0 00-1.894 3.521l.391 2.715a3.19 3.19 0 01-2.277 3.449l-2.65.707a3.574 3.574 0 00-2.493 3.126l-.1 2.741a3.192 3.192 0 01-2.856 2.988l-2.734.222a3.573 3.573 0 00-3.01 2.631l-.588 2.68a3.191 3.191 0 01-3.344 2.429l-2.73-.269a3.569 3.569 0 00-3.432 2.05l-1.057 2.532a3.192 3.192 0 01-3.724 1.793l-2.638-.752a3.575 3.575 0 00-3.743 1.4l-1.492 2.3a3.191 3.191 0 01-3.985 1.1l-2.461-1.211a3.572 3.572 0 00-3.934.714l-1.879 2a3.143 3.143 0 01-2.277.965zm-6.034-3.165a3.734 3.734 0 012.2.674l2.206 1.631a2.84 2.84 0 003.664-.33l1.879-2a3.936 3.936 0 014.334-.787l2.461 1.212a2.841 2.841 0 003.546-.979l1.492-2.3a3.935 3.935 0 014.124-1.548l2.638.752a2.84 2.84 0 003.314-1.6l1.057-2.532a3.942 3.942 0 013.782-2.259l2.73.269a2.834 2.834 0 002.976-2.162l.588-2.68a3.937 3.937 0 013.317-2.9l2.735-.223a2.84 2.84 0 002.542-2.659l.1-2.741a3.937 3.937 0 012.746-3.444l2.651-.707a2.84 2.84 0 002.027-3.07l-.391-2.716a3.936 3.936 0 012.087-3.879l2.482-1.169a2.84 2.84 0 001.445-3.383l-.87-2.6a3.938 3.938 0 011.361-4.189l2.233-1.593a2.84 2.84 0 00.819-3.586l-1.32-2.4a3.937 3.937 0 01.591-4.365l1.913-1.966a2.84 2.84 0 00.165-3.675l-1.728-2.13a3.937 3.937 0 01-.2-4.4l1.53-2.277a2.84 2.84 0 00-.493-3.645l-2.081-1.787a3.937 3.937 0 01-.98-4.295l1.1-2.513a2.84 2.84 0 00-1.137-3.5l-2.367-1.387a3.938 3.938 0 01-1.731-4.05l.634-2.669a2.841 2.841 0 00-1.744-3.239l-2.576-.942a3.938 3.938 0 01-2.427-3.676l.146-2.739a2.84 2.84 0 00-2.293-2.876l-2.7-.467a3.938 3.938 0 01-3.044-3.184l-.345-2.721a2.841 2.841 0 00-2.749-2.421h-.023l-2.743.023h-.025a3.94 3.94 0 01-3.539-2.589l-.825-2.616a2.841 2.841 0 00-3.158-1.887l-2.695.513a3.936 3.936 0 01-3.969-1.911l-1.279-2.427a2.841 2.841 0 00-3.444-1.292l-2.56.986a3.938 3.938 0 01-4.246-1.172l-1.692-2.159a2.839 2.839 0 00-3.619-.657l-2.343 1.427a3.938 3.938 0 01-4.387-.395l-2.05-1.823a2.84 2.84 0 00-3.679 0l-.114-.128.114.128-2.05 1.823a3.938 3.938 0 01-4.387.395l-2.343-1.427a2.84 2.84 0 00-3.62.657l-1.692 2.159a3.937 3.937 0 01-4.246 1.172l-2.56-.986a2.84 2.84 0 00-3.449 1.291l-1.279 2.427a3.938 3.938 0 01-3.969 1.911l-2.695-.513a2.84 2.84 0 00-3.158 1.887l-.825 2.616a3.941 3.941 0 01-3.539 2.589h-.025l-2.743-.023h-.021a2.841 2.841 0 00-2.749 2.421l-.345 2.721a3.937 3.937 0 01-3.044 3.184l-2.7.467a2.84 2.84 0 00-2.293 2.876l.146 2.739a3.938 3.938 0 01-2.427 3.676l-2.576.942a2.84 2.84 0 00-1.743 3.239l.633 2.669a3.937 3.937 0 01-1.731 4.05l-2.367 1.387a2.84 2.84 0 00-1.137 3.5l1.1 2.513a3.937 3.937 0 01-.98 4.295l-2.081 1.787a2.84 2.84 0 00-.494 3.645l1.531 2.277a3.937 3.937 0 01-.2 4.4l-1.729 2.13a2.84 2.84 0 00.165 3.675l1.912 1.966a3.937 3.937 0 01.591 4.365l-1.32 2.4a2.84 2.84 0 00.818 3.586l2.233 1.593a3.938 3.938 0 011.362 4.189l-.87 2.6a2.84 2.84 0 001.446 3.383l2.482 1.169a3.936 3.936 0 012.087 3.879l-.391 2.715a2.84 2.84 0 002.027 3.07l2.65.707a3.937 3.937 0 012.746 3.444l.1 2.741a2.84 2.84 0 002.542 2.659l2.734.223a3.937 3.937 0 013.317 2.9l.588 2.68a2.838 2.838 0 002.976 2.162l2.73-.269a3.943 3.943 0 013.781 2.259l1.057 2.532a2.841 2.841 0 003.314 1.6l2.638-.752a3.935 3.935 0 014.124 1.548l1.492 2.3a2.841 2.841 0 003.546.979l2.461-1.212a3.935 3.935 0 014.334.787l1.879 2a2.84 2.84 0 003.664.33l2.206-1.631a3.734 3.734 0 012.203-.672z" class="cls-1" data-name="Path 54" transform="translate(-144.426 -144.7)"/></g></g><g id="Group_83" data-name="Group 83" transform="translate(5.76 5.684)"><circle id="Ellipse_6" cx="64.276" cy="64.276" r="64.276" class="cls-1" data-name="Ellipse 6" transform="translate(.522 .522)"/><path id="Path_55" d="M230.086 294.883a64.8 64.8 0 1145.819-18.983 64.374 64.374 0 01-45.819 18.983zm0-128.552a63.754 63.754 0 1063.753 63.754 63.826 63.826 0 00-63.753-63.754z" class="cls-2" data-name="Path 55" transform="translate(-165.287 -165.286)"/></g><g id="Group_86" data-name="Group 86" transform="translate(8.634 8.558)"><g id="Group_84" data-name="Group 84" transform="translate(.523 .523)"><circle id="Ellipse_7" cx="61.402" cy="61.402" r="61.402" class="cls-1" data-name="Ellipse 7"/></g><g id="Group_85" data-name="Group 85"><path id="Path_56" d="M237.621 299.544a61.925 61.925 0 1143.787-18.137 61.519 61.519 0 01-43.787 18.137zm0-122.8A60.879 60.879 0 10298.5 237.62a60.948 60.948 0 00-60.879-60.88z" data-name="Path 56" transform="translate(-175.696 -175.695)"/></g></g><g id="Group_89" data-name="Group 89" transform="translate(8.85 8.774)"><g id="Group_87" data-name="Group 87"><circle id="Ellipse_8" cx="43.635" cy="43.635" r="43.635" class="cls-1" data-name="Ellipse 8" transform="rotate(-45 74.49 30.854)"/></g><g id="Group_88" data-name="Group 88" transform="translate(16.768 16.768)"><path id="Path_57" d="M282.147 327.087a44.941 44.941 0 1144.941-44.941 44.992 44.992 0 01-44.941 44.941zm0-87.269a42.328 42.328 0 1042.328 42.328 42.376 42.376 0 00-42.328-42.328z" data-name="Path 57" transform="translate(-237.206 -237.205)"/></g></g><g id="Group_92" data-name="Group 92" transform="translate(29.929 29.853)"><g id="Group_90" data-name="Group 90" transform="translate(.131 .131)"><circle id="Ellipse_9" cx="40.499" cy="40.499" r="40.499" class="cls-1" data-name="Ellipse 9"/></g><g id="Group_91" data-name="Group 91"><path id="Path_58" fill="#141d4f" d="M293.45 334.079a40.63 40.63 0 1140.63-40.63 40.676 40.676 0 01-40.63 40.63zm0-81a40.369 40.369 0 1040.368 40.369 40.414 40.414 0 00-40.368-40.368z" data-name="Path 58" transform="translate(-252.82 -252.819)"/></g></g></g><g id="Group_100" data-name="Group 100" transform="translate(19.717 196.517)"><g id="Group_99" data-name="Group 99"><g id="Group_94" data-name="Group 94" transform="translate(0 13.915)"><path id="Path_59" d="M59.344 418.845q-16.436 1.77-32.763 4.3 4.842-9.8 9.955-19.46-7.643-7.96-15.5-15.7 17.25-2.679 34.6-4.543z" class="cls-4" data-name="Path 59" transform="translate(-20.668 -383.256)"/><path id="Path_60" d="M25.33 422.871l.146-.3a787.748 787.748 0 019.9-19.355 783.917 783.917 0 00-15.415-15.605l-.243-.239.336-.052a745.675 745.675 0 0134.606-4.544l.171-.018.018.171 3.732 35.571-.17.018a713.562 713.562 0 00-32.755 4.3zm-4.888-35.261a785.363 785.363 0 0115.265 15.463l.086.089-.058.109a789.733 789.733 0 00-9.806 19.161 712.097 712.097 0 0132.276-4.234l-3.679-35.059a747.158 747.158 0 00-34.084 4.471z" class="cls-4" data-name="Path 60" transform="translate(-19.717 -382.762)"/></g><g id="Group_95" data-name="Group 95" transform="translate(25.361 13.358)"><path id="Path_61" d="M112.309 410.011q6.6 4.345 13.11 8.834l-3.715-35.4q-4.896 13.214-9.395 26.566z" class="cls-5" data-name="Path 61" transform="translate(-112.105 -382.699)"/><path id="Path_62" d="M125.093 417.243l-.306-.213c-3.916-2.716-8.2-5.6-13.107-8.831l-.11-.073.042-.125a937.21 937.21 0 019.4-26.57l.254-.686zm-13.115-9.257a659.536 659.536 0 0112.7 8.551l-3.6-34.3a938.886 938.886 0 00-9.101 25.748z" class="cls-1" data-name="Path 62" transform="translate(-111.569 -380.744)"/></g><g id="Group_96" data-name="Group 96" transform="translate(171.136 13.915)"><path id="Path_63" d="M640.209 418.845q16.436 1.77 32.763 4.3-4.842-9.8-9.955-19.46 7.643-7.96 15.5-15.7-17.25-2.679-34.6-4.543-1.851 17.703-3.708 35.403z" class="cls-4" data-name="Path 63" transform="translate(-640.021 -383.256)"/><path id="Path_64" d="M672.779 422.871l-.326-.05a710.687 710.687 0 00-32.755-4.3l-.17-.019 3.75-35.74.171.018a746.031 746.031 0 0134.606 4.544l.337.052-.243.239a783.984 783.984 0 00-15.415 15.605 793.084 793.084 0 019.9 19.355zM639.9 418.2a713.898 713.898 0 0132.276 4.234 793.344 793.344 0 00-9.806-19.161l-.058-.109.085-.089a788.234 788.234 0 0115.265-15.463 744.865 744.865 0 00-34.083-4.471z" class="cls-1" data-name="Path 64" transform="translate(-639.528 -382.762)"/></g><g id="Group_97" data-name="Group 97" transform="translate(171.115 13.358)"><path id="Path_65" d="M653.319 410.011c-4.4 2.9-8.782 5.827-13.11 8.834l3.715-35.4q4.896 13.214 9.395 26.566z" class="cls-5" data-name="Path 65" transform="translate(-640 -382.699)"/><path id="Path_66" d="M639.451 417.243l3.83-36.5.254.686a954.472 954.472 0 019.4 26.571l.043.125-.11.073c-5.093 3.351-9.258 6.158-13.107 8.831zm4.018-35.007l-3.6 34.3a613.835 613.835 0 0112.7-8.551 956.328 956.328 0 00-9.1-25.749z" class="cls-1" data-name="Path 66" transform="translate(-639.451 -380.744)"/></g><g id="Group_98" data-name="Group 98" transform="translate(20.996)"><path id="Path_67" d="M180.264 332.985a710.8 710.8 0 00-83.813 5.175l4.379 35.324a674.671 674.671 0 0179.435-4.9 674.678 674.678 0 0179.434 4.9l4.379-35.324a710.807 710.807 0 00-83.814-5.175z" class="cls-4" data-name="Path 67" transform="translate(-96.26 -332.814)"/><path id="Path_68" d="M259.347 373.226l-.169-.021a677.569 677.569 0 00-79.415-4.9 677.561 677.561 0 00-79.414 4.9l-.17.021-4.42-35.664.17-.02a714.139 714.139 0 0183.833-5.176 714.107 714.107 0 0183.833 5.176l.17.02zm-79.584-5.266a677.973 677.973 0 0179.286 4.885l4.336-34.984a713.844 713.844 0 00-83.623-5.153 713.87 713.87 0 00-83.621 5.153l4.336 34.984a677.968 677.968 0 0179.286-4.885z" class="cls-1" data-name="Path 68" transform="translate(-95.76 -332.366)"/></g></g></g><g id="Group_113" data-name="Group 113" transform="translate(95.597 177.365)"><g id="Group_106" data-name="Group 106" transform="translate(.001)"><g id="Group_101" data-name="Group 101" transform="translate(23.373)"><path id="Path_69" d="M385.88 264.4l1.659 3.355 3.7.535-2.678 2.615.636 3.688-3.314-1.739-3.311 1.744.63-3.689-2.682-2.61 3.7-.541z" data-name="Path 69" transform="translate(-380.156 -264.018)"/><path id="Path_70" d="M381.385 273.9l.673-3.943-2.866-2.789 3.957-.578 1.766-3.59 1.773 3.585 3.958.572-2.862 2.794.68 3.941-3.541-1.858zm-1.458-6.493l2.5 2.431-.586 3.436 3.084-1.625 3.087 1.619-.592-3.435 2.494-2.435-3.451-.5-1.545-3.124-1.54 3.127z" data-name="Path 70" transform="translate(-379.191 -263.004)"/></g><g id="Group_102" data-name="Group 102" transform="translate(51.818 13.068)"><path id="Path_71" d="M486.376 311.733l.877 1.773 1.958.283-1.416 1.382.336 1.95-1.752-.919-1.75.922.333-1.95-1.418-1.38 1.958-.286z" data-name="Path 71" transform="translate(-483.176 -311.347)"/><path id="Path_72" d="M483.438 316.424l.376-2.2-1.6-1.559 2.212-.323.988-2.005.991 2 2.212.32-1.6 1.561.38 2.2-1.979-1.038zm-.49-3.524l1.234 1.2-.29 1.7 1.523-.8 1.525.8-.293-1.7 1.232-1.2-1.7-.246-.763-1.543-.761 1.544z" data-name="Path 72" transform="translate(-482.212 -310.333)"/></g><g id="Group_103" data-name="Group 103" transform="translate(37.637 5.441)"><path id="Path_73" d="M436.236 284.11l1.255 2.537 2.8.4-2.025 1.978.481 2.79-2.507-1.315-2.5 1.319.476-2.79-2.029-1.974 2.8-.409z" data-name="Path 73" transform="translate(-431.817 -283.724)"/><path id="Path_74" d="M432.545 291.123l.519-3.044-2.213-2.153 3.055-.446 1.364-2.77 1.369 2.767 3.056.441-2.209 2.157.525 3.043-2.734-1.435zm-.958-4.959l1.845 1.8L433 290.5l2.277-1.2 2.28 1.2-.437-2.537 1.842-1.8-2.548-.368-1.141-2.307-1.137 2.309z" data-name="Path 74" transform="translate(-430.852 -282.71)"/></g><g id="Group_104" data-name="Group 104" transform="translate(11.728 5.463)"><path id="Path_75" d="M342.4 284.19l1.255 2.537 2.8.4-2.025 1.978.481 2.79-2.507-1.315-2.5 1.319.476-2.79-2.029-1.974 2.8-.409z" data-name="Path 75" transform="translate(-337.981 -283.804)"/><path id="Path_76" d="M338.71 291.2l.519-3.044-2.213-2.153 3.055-.446 1.364-2.77 1.369 2.767 3.056.441-2.209 2.157.525 3.043-2.734-1.435zm-.958-4.959l1.845 1.8-.433 2.537 2.277-1.2 2.279 1.2-.437-2.537 1.842-1.8-2.548-.368-1.141-2.307-1.137 2.309z" data-name="Path 76" transform="translate(-337.017 -282.79)"/></g><g id="Group_105" data-name="Group 105" transform="translate(0 13.112)"><path id="Path_77" d="M298.7 311.894l.877 1.773 1.958.283-1.416 1.382.336 1.95-1.752-.919-1.75.922.333-1.95-1.418-1.38 1.958-.286z" data-name="Path 77" transform="translate(-295.505 -311.507)"/><path id="Path_78" d="M295.767 316.584l.376-2.2-1.6-1.559 2.212-.323.988-2.005.991 2 2.212.32-1.6 1.562.38 2.2-1.979-1.038zm-.49-3.524l1.234 1.2-.29 1.7 1.523-.8 1.525.8-.293-1.7 1.232-1.2-1.7-.246-.763-1.543-.761 1.545z" data-name="Path 78" transform="translate(-294.541 -310.493)"/></g></g><g id="Group_112" data-name="Group 112" transform="translate(0 56.317)"><g id="Group_107" data-name="Group 107" transform="translate(23.392 8.305)"><path id="Path_79" d="M385.951 508.383l-1.659-3.355-3.7-.535 2.678-2.615-.636-3.688 3.314 1.739 3.311-1.744-.629 3.689 2.682 2.61-3.7.541z" data-name="Path 79" transform="translate(-380.22 -497.872)"/><path id="Path_80" d="M384.988 507.949l-1.773-3.585-3.958-.572 2.861-2.792-.68-3.941 3.541 1.858 3.538-1.864-.673 3.942 2.866 2.789-3.957.578zm-5-4.4l3.45.5 1.545 3.124 1.54-3.127 3.449-.5-2.5-2.431.586-3.436-3.078 1.621-3.087-1.619.592 3.435z" data-name="Path 80" transform="translate(-379.256 -497.051)"/></g><g id="Group_108" data-name="Group 108" transform="translate(0 .044)"><path id="Path_81" d="M298.7 473.656l-.877-1.773-1.958-.283 1.416-1.382-.336-1.95 1.752.919 1.75-.922-.333 1.95 1.418 1.38-1.958.286z" data-name="Path 81" transform="translate(-295.5 -467.952)"/><path id="Path_82" d="M297.739 473.222l-.991-2-2.212-.32 1.6-1.561-.38-2.2 1.979 1.038 1.978-1.042-.376 2.2 1.6 1.559-2.212.324zm-2.468-2.563l1.7.246.763 1.543.761-1.545 1.7-.249-1.234-1.2.29-1.7-1.523.8-1.525-.8.292 1.7z" data-name="Path 82" transform="translate(-294.536 -467.131)"/></g><g id="Group_109" data-name="Group 109" transform="translate(11.74 5.349)"><path id="Path_83" d="M342.442 495.19l-1.255-2.537-2.8-.4 2.025-1.978-.481-2.79 2.507 1.315 2.5-1.319-.476 2.79 2.029 1.974-2.8.409z" data-name="Path 83" transform="translate(-338.018 -487.164)"/><path id="Path_84" d="M341.479 494.756l-1.369-2.768-3.056-.441 2.209-2.157-.525-3.043 2.734 1.434 2.732-1.439-.52 3.044 2.213 2.153-3.055.446zm-3.689-3.449l2.547.368 1.141 2.307 1.137-2.309 2.547-.372-1.845-1.8.433-2.537-2.277 1.2-2.279-1.2.437 2.537z" data-name="Path 84" transform="translate(-337.054 -486.343)"/></g><g id="Group_110" data-name="Group 110" transform="translate(37.649 5.327)"><path id="Path_85" d="M436.277 495.11l-1.255-2.537-2.8-.4 2.025-1.978-.481-2.79 2.507 1.315 2.5-1.319-.476 2.79 2.029 1.974-2.8.409z" data-name="Path 85" transform="translate(-431.853 -487.084)"/><path id="Path_86" d="M435.314 494.676l-1.369-2.767-3.056-.441 2.209-2.157-.525-3.043 2.734 1.434 2.732-1.439-.519 3.044 2.213 2.153-3.055.447zm-3.689-3.448l2.548.368 1.141 2.307 1.137-2.309 2.547-.372-1.845-1.8.433-2.537-2.277 1.2-2.279-1.2.437 2.537z" data-name="Path 86" transform="translate(-430.89 -486.263)"/></g><g id="Group_111" data-name="Group 111" transform="translate(51.818)"><path id="Path_87" d="M486.374 473.5l-.877-1.773-1.958-.283 1.416-1.382-.336-1.95 1.752.919 1.75-.922-.333 1.95 1.418 1.38-1.958.286z" data-name="Path 87" transform="translate(-483.171 -467.791)"/><path id="Path_88" d="M485.41 473.062l-.991-2-2.212-.319 1.6-1.561-.38-2.2 1.979 1.038 1.978-1.042-.376 2.2 1.6 1.559-2.212.323zm-2.468-2.563l1.7.246.763 1.543.76-1.545 1.7-.249-1.234-1.2.289-1.7-1.523.8-1.525-.8.292 1.7z" data-name="Path 88" transform="translate(-482.207 -466.971)"/></g></g></g><g id="Group_114" data-name="Group 114" transform="translate(75.444 157.371)"><path id="Path_89" d="M221.544 254.683l2.13-2.512 5.559 3.158-3.67-5.386 2.122-2.5 5.91 2.73-4.018-4.963 2.119-2.5 6.96 9.144-2.2 2.594-6.662-3.068 4.121 6.065-2.2 2.594z" class="cls-2" data-name="Path 89" transform="translate(-221.544 -228.318)"/><path id="Path_90" d="M286.291 229.4l-3.272 2.188.575 1.844-2.943 1.968-2.733-11.673 3.144-2.1 9.744 6.984-3.018 2.019zm-1.947-1.617l-3.272-2.665 1.223 4.035z" class="cls-2" data-name="Path 90" transform="translate(-262.353 -213.059)"/><path id="Path_91" d="M316.939 212.186l-3.747-10.578 5.448-1.929a8.386 8.386 0 012.408-.561 2.617 2.617 0 011.633.506 3.169 3.169 0 01.594 4.593 4.2 4.2 0 01-1 .825 3.462 3.462 0 01.989.089 3.5 3.5 0 01.72.371 4.387 4.387 0 01.691.5l2.668 2.5-3.693 1.308-2.892-2.614a2.616 2.616 0 00-.88-.605 1.456 1.456 0 00-.888.038l-.289.1 1.521 4.293zm1.055-7.455l1.378-.488a5.213 5.213 0 00.815-.451.916.916 0 00.413-.52 1.137 1.137 0 00-.615-1.358 2.085 2.085 0 00-1.316.158l-1.436.509z" class="cls-2" data-name="Path 91" transform="translate(-287.887 -196.763)"/><path id="Path_92" d="M363.994 202.354l-1.021-11.176 5.756-.526a8.4 8.4 0 012.472.051 2.618 2.618 0 011.458.893 3.169 3.169 0 01-.557 4.6 4.2 4.2 0 01-1.172.553 3.459 3.459 0 01.937.33 3.514 3.514 0 01.606.537 4.4 4.4 0 01.547.65l1.968 3.085-3.9.357-2.158-3.247a2.615 2.615 0 00-.7-.8 1.454 1.454 0 00-.87-.182l-.3.028.414 4.536zm2.861-6.964l1.456-.133a5.223 5.223 0 00.9-.236.916.916 0 00.528-.4 1.137 1.137 0 00-.261-1.467 2.085 2.085 0 00-1.315-.172l-1.517.139z" class="cls-2" data-name="Path 92" transform="translate(-323.923 -190.59)"/><path id="Path_93" d="M412.787 201.556l-3.89-.608-.826 1.746-3.5-.546 5.9-10.437 3.737.584 2.434 11.738-3.587-.56zm-.336-2.508l-.6-4.177-1.834 3.8z" class="cls-2" data-name="Path 93" transform="translate(-354.037 -191.402)"/><path id="Path_94" d="M454.426 199.96l2.966 1.3 1.381 7.382 2.489-5.688 2.994 1.311-4.5 10.28-2.994-1.31-1.379-7.33-2.471 5.645-2.987-1.308z" class="cls-2" data-name="Path 94" transform="translate(-386.867 -197.373)"/><path id="Path_95" d="M502.709 222.508l8.322 6.47-1.7 2.188-2.792-2.171-5.187 6.672-2.738-2.129 5.187-6.672-2.792-2.171z" class="cls-2" data-name="Path 95" transform="translate(-422.111 -213.695)"/><path id="Path_96" d="M534.746 252.441l2.394 3.017-1.561 4.124 4.374-.578 2.381 3-7.821.636-3.682 2.922-2.16-2.722 3.682-2.922z" class="cls-2" data-name="Path 96" transform="translate(-443.871 -235.363)"/></g><g id="Group_115" data-name="Group 115" transform="translate(76.954 241.011)"><path id="Path_97" d="M233.745 493.9l2.188 2.462-3.908 5.06 5.849-2.876 2.18 2.453-3.534 5.468 5.478-3.28 2.177 2.449-10.032 5.606-2.259-2.542 3.974-6.164-6.584 3.228-2.259-2.542z" class="cls-2" data-name="Path 97" transform="translate(-227.015 -493.792)"/><path id="Path_98" d="M274.309 552.729l-3.321-2.115-1.456 1.269-2.986-1.9 9.586-7.2 3.19 2.032-2.471 11.731-3.063-1.951zm.7-2.433l1.122-4.068-3.2 2.744z" class="cls-2" data-name="Path 98" transform="translate(-255.63 -529.178)"/><path id="Path_99" d="M314.751 569.356l3.583-10.634 5.477 1.845a8.4 8.4 0 012.241 1.046 2.616 2.616 0 01.972 1.406 3.169 3.169 0 01-2.368 3.98 4.189 4.189 0 01-1.3.032 2.345 2.345 0 011.061 1.417 4.409 4.409 0 01.238.816l.553 3.618-3.708-1.252-.662-3.842a2.619 2.619 0 00-.319-1.02 1.459 1.459 0 00-.722-.518l-.29-.1-1.454 4.316zm5.432-5.214l1.386.467a5.212 5.212 0 00.919.148.915.915 0 00.646-.154 1.136 1.136 0 00.355-1.448 2.085 2.085 0 00-1.133-.689l-1.444-.486z" class="cls-2" data-name="Path 99" transform="translate(-290.526 -540.717)"/><path id="Path_100" d="M364.319 582.535l.93-11.183 5.759.479a8.388 8.388 0 012.426.478 2.615 2.615 0 011.281 1.132 3.169 3.169 0 01-1.345 4.432 4.207 4.207 0 01-1.251.341 3.448 3.448 0 01.865.487 3.485 3.485 0 01.5.634 4.41 4.41 0 01.426.735l1.4 3.38-3.9-.325-1.563-3.571a2.617 2.617 0 00-.554-.914 1.455 1.455 0 00-.825-.33l-.305-.025-.377 4.539zm4.024-6.363l1.457.121a5.2 5.2 0 00.928-.076.916.916 0 00.59-.3 1.136 1.136 0 000-1.49 2.086 2.086 0 00-1.265-.4l-1.518-.126z" class="cls-2" data-name="Path 100" transform="translate(-326.408 -549.86)"/><path id="Path_101" d="M419.243 579.5l-3.889.609-.254 1.915-3.5.548 2.431-11.74 3.737-.585 5.9 10.435-3.587.562zm-1.086-2.286l-1.848-3.794-.587 4.175z" class="cls-2" data-name="Path 101" transform="translate(-360.636 -549.06)"/><path id="Path_102" d="M450.816 555.851l2.973-1.283 6.34 4.026-2.46-5.7 3-1.295 4.447 10.3-3 1.295-6.3-3.992 2.442 5.658-2.994 1.292z" class="cls-2" data-name="Path 102" transform="translate(-389.022 -535.561)"/><path id="Path_103" d="M489.34 533.2l8.4-6.367 1.674 2.208-2.819 2.136 5.1 6.735-2.763 2.095-5.105-6.735-2.818 2.136z" class="cls-2" data-name="Path 103" transform="translate(-416.909 -517.635)"/><path id="Path_104" d="M519.52 502.912l2.458-2.965 4.357.676-1.468-4.16 2.445-2.949 2.236 7.522 3.618 3-2.218 2.675-3.618-3z" class="cls-2" data-name="Path 104" transform="translate(-438.756 -493.513)"/></g><g id="Group_117" data-name="Group 117" transform="translate(48.773 203.454)"><g id="Group_116" data-name="Group 116"><path id="Path_105" d="M124.952 370.853c2.639-.291 3.959-.431 6.6-.7l1.65 16.374q5.029-.507 10.065-.939l.459 5.357q-8.2.7-16.378 1.606l-2.396-21.698z" class="cls-1" data-name="Path 105" transform="translate(-124.952 -366.66)"/><path id="Path_106" d="M198.027 364.365c2.65-.215 3.976-.316 6.627-.5l1.555 21.778c-2.568.183-3.852.281-6.419.489z" class="cls-1" data-name="Path 106" transform="translate(-177.85 -362.102)"/><path id="Path_107" d="M239.324 360.426q8.178-.533 16.367-.862l.191 4.687q-4.829.2-9.654.462l.209 3.807q4.1-.227 8.2-.4l.189 4.4q-4.075.172-8.148.4l.489 8.908c-2.576.141-3.864.218-6.439.384z" class="cls-1" data-name="Path 107" transform="translate(-207.745 -358.992)"/><path id="Path_108" d="M311.47 358q8.877-.3 17.755-.407l.047 4.661q-5.522.056-11.042.2l.091 3.469q5.1-.133 10.191-.191l.05 4.453q-5.063.058-10.125.19l.113 4.3q5.579-.146 11.161-.2l.048 4.944q-8.759.106-17.51.4z" class="cls-1" data-name="Path 108" transform="translate(-259.97 -357.568)"/><path id="Path_109" d="M384.411 357.5q10.075-.044 20.143.156l-.12 5.39c-2.682-.06-4.023-.083-6.7-.116l-.205 16.441a572.328 572.328 0 00-6.419-.05l.049-16.442a555.159 555.159 0 00-6.706.013c-.02-2.156-.027-3.234-.042-5.392z" class="cls-1" data-name="Path 109" transform="translate(-312.772 -357.493)"/><path id="Path_110" d="M467.637 358.376c2.656.072 3.984.113 6.639.21l-.8 21.819a492.527 492.527 0 00-6.431-.2q.299-10.916.592-21.829z" class="cls-1" data-name="Path 110" transform="translate(-372.593 -358.132)"/><path id="Path_111" d="M507.694 359.813q4.355.185 8.707.431 1.306 6.722 2.553 13.456 2.039-6.534 4.136-13.05 4.348.282 8.693.624l-1.7 21.767c-2.1-.163-3.147-.241-5.246-.389L526 366.041q-2.644 8.157-5.209 16.338c-1.9-.122-2.851-.18-4.752-.288q-1.555-8.431-3.19-16.847l-.848 16.629c-2.1-.107-3.151-.157-5.252-.248q.474-10.905.945-21.812z" class="cls-1" data-name="Path 111" transform="translate(-401.333 -359.172)"/><path id="Path_112" d="M607.832 366.334q8.859.766 17.7 1.717l-.509 4.634q-5.5-.6-11-1.12l-.324 3.455q5.081.476 10.154 1.028l-.482 4.427q-5.04-.548-10.088-1.022l-.4 4.286q5.564.522 11.119 1.135l-.543 4.914q-8.718-.941-17.452-1.7.91-10.876 1.825-21.754z" class="cls-1" data-name="Path 112" transform="translate(-473.179 -363.893)"/></g></g></g></svg>