<svg xmlns="http://www.w3.org/2000/svg" width="387" height="64.428"><defs><clipPath id="clip-path"><path id="Rectangle_7684" d="M0 0h211.366v36.041H0z" class="cls-1" data-name="Rectangle 7684"/></clipPath><clipPath id="clip-path-2"><path id="Rectangle_7685" d="M0 0h211.365v36.041H0z" class="cls-1" data-name="Rectangle 7685"/></clipPath><style>.cls-1{fill:none}.cls-2{fill:#fff}.cls-4{clip-path:url(#clip-path)}</style></defs><g id="img-logo-sidebar-main-nav-white" transform="translate(-255 -45.5)"><g id="logo-astrea" transform="translate(506.67 56.76)"><path id="Path_2" d="M239.6-63.788h11.672a6.959 6.959 0 00-.511-2.22 5.924 5.924 0 00-1.179-1.827 5.4 5.4 0 00-1.788-1.238 5.816 5.816 0 00-2.338-.452 5.714 5.714 0 00-2.3.452 5.784 5.784 0 00-1.808 1.218 5.726 5.726 0 00-1.218 1.827 6.834 6.834 0 00-.53 2.24zm-3.223 5.659h3.3a4.75 4.75 0 001.788 2.987 5.782 5.782 0 003.478.982 6.919 6.919 0 002.869-.55 5.622 5.622 0 002-1.474 5.741 5.741 0 001.14-2.122 8.066 8.066 0 00.314-2.535h-15.202a16.175 16.175 0 01.334-3.891 11.261 11.261 0 011.493-3.773 8.9 8.9 0 012.869-2.849 8.335 8.335 0 014.5-1.12 9.239 9.239 0 013.832.786 9 9 0 013.026 2.2 10.143 10.143 0 011.985 3.34 12.226 12.226 0 01.707 4.244 16.287 16.287 0 01-.688 4.283 9.35 9.35 0 01-1.827 3.38 8.329 8.329 0 01-3.006 2.2 10.436 10.436 0 01-4.225.786 9.222 9.222 0 01-5.738-1.729 8.119 8.119 0 01-2.948-5.145z" class="cls-2" data-name="Path 2" transform="translate(-168.804 78.093)"/><path id="Path_1" d="M24.031-65.734a4.725 4.725 0 01-2.4.511 2.874 2.874 0 01-2.063-.727 3.16 3.16 0 01-.766-2.378 7.992 7.992 0 01-3.2 2.378 10.586 10.586 0 01-3.949.727 10.581 10.581 0 01-2.613-.314 6.077 6.077 0 01-2.14-.983 4.715 4.715 0 01-1.434-1.749 5.884 5.884 0 01-.531-2.613 5.967 5.967 0 01.589-2.829 5.143 5.143 0 011.55-1.789 7.113 7.113 0 012.2-1.041q1.238-.354 2.535-.589 1.375-.275 2.613-.413a14.558 14.558 0 002.181-.393 3.634 3.634 0 001.493-.747 1.823 1.823 0 00.55-1.434 3.334 3.334 0 00-.413-1.768 2.83 2.83 0 00-1.061-1.022 4.314 4.314 0 00-1.454-.472 10.983 10.983 0 00-1.592-.118 7.064 7.064 0 00-3.537.806 3.419 3.419 0 00-1.533 3.046H5.718a7.215 7.215 0 01.782-3.184 5.959 5.959 0 011.886-2.1 7.914 7.914 0 012.692-1.159 14.217 14.217 0 013.242-.354 19.016 19.016 0 012.731.2 7.138 7.138 0 012.456.806 4.709 4.709 0 011.768 1.709 5.471 5.471 0 01.668 2.869v10.453a7.818 7.818 0 00.138 1.729q.138.55.924.55a3.308 3.308 0 001.022-.2zm-5.423-10.414a4.157 4.157 0 01-1.651.688q-1.022.216-2.142.354t-2.26.314a8.309 8.309 0 00-2.043.57A3.717 3.717 0 009.039-73.1a3.136 3.136 0 00-.57 1.985 2.716 2.716 0 00.334 1.4 2.784 2.784 0 00.865.924 3.626 3.626 0 001.238.511 6.868 6.868 0 001.493.157 7.913 7.913 0 002.829-.452 5.951 5.951 0 001.926-1.14 4.5 4.5 0 001.1-1.493 3.777 3.777 0 00.354-1.513zm10.768 4.087h-3.34a7.351 7.351 0 00.786 3.2 5.911 5.911 0 001.886 2.122 7.9 7.9 0 002.712 1.159 14.293 14.293 0 003.222.354 16.505 16.505 0 003.085-.295 8.377 8.377 0 002.79-1.041 5.99 5.99 0 002-1.965 5.659 5.659 0 00.766-3.065 4.79 4.79 0 00-.57-2.436 5.087 5.087 0 00-1.493-1.631A8.008 8.008 0 0039.1-76.7a25.082 25.082 0 00-2.456-.668q-1.179-.275-2.358-.531a13.6 13.6 0 01-2.122-.629 4.863 4.863 0 01-1.552-.943A1.881 1.881 0 0130-80.9a1.982 1.982 0 01.393-1.277 2.81 2.81 0 011.022-.786 5.1 5.1 0 011.4-.413 9.941 9.941 0 011.513-.118 7.584 7.584 0 011.631.177 5 5 0 011.474.57 3.345 3.345 0 011.1 1.041 3.381 3.381 0 01.511 1.631h3.34a7.462 7.462 0 00-.786-3.085 5.288 5.288 0 00-1.788-1.965 7.364 7.364 0 00-2.574-1.022 16.041 16.041 0 00-3.183-.295 11.221 11.221 0 00-2.692.334 8.119 8.119 0 00-2.436 1.022 5.623 5.623 0 00-1.77 1.786 4.868 4.868 0 00-.688 2.633 4.442 4.442 0 00.983 3.067 6.631 6.631 0 002.456 1.709 16.618 16.618 0 003.2.943q1.729.334 3.2.747a8.36 8.36 0 012.456 1.081 2.224 2.224 0 01.982 1.965 2.461 2.461 0 01-.472 1.552 2.989 2.989 0 01-1.2.924 6.051 6.051 0 01-1.592.432 12.23 12.23 0 01-1.651.118 9.9 9.9 0 01-1.985-.2 5.569 5.569 0 01-1.729-.648 3.555 3.555 0 01-1.238-1.218 3.76 3.76 0 01-.502-1.866zm22.439-13.912v-6.091h-3.34v6.091h-3.459v2.947h3.458V-70.1a7.72 7.72 0 00.275 2.279 2.771 2.771 0 00.845 1.336 3.261 3.261 0 001.493.648 11.993 11.993 0 002.22.177h2.554v-2.94H54.33a11.138 11.138 0 01-1.277-.059 1.65 1.65 0 01-.766-.255.971.971 0 01-.373-.55 3.646 3.646 0 01-.1-.943v-12.618h4.048v-2.947zm7.82 0v20.317h3.34v-9.039a13.891 13.891 0 01.393-3.478 6.666 6.666 0 011.258-2.574 5.39 5.39 0 012.279-1.611 9.448 9.448 0 013.419-.55v-3.537a7.507 7.507 0 00-4.48 1.1 9.049 9.049 0 00-2.987 3.655h-.079v-4.283zm48.1 8.213H96.064a6.957 6.957 0 01.511-2.22 5.922 5.922 0 011.179-1.827 5.4 5.4 0 011.788-1.238 5.817 5.817 0 012.338-.452 5.715 5.715 0 012.3.452 5.784 5.784 0 011.808 1.218A5.725 5.725 0 01107.205-80a6.834 6.834 0 01.531 2.24zm3.222 5.659h-3.3a4.75 4.75 0 01-1.788 2.987 5.782 5.782 0 01-3.478.982 6.919 6.919 0 01-2.869-.55 5.623 5.623 0 01-2-1.474 5.741 5.741 0 01-1.14-2.122 8.065 8.065 0 01-.314-2.535h15.208a16.176 16.176 0 00-.334-3.891 11.262 11.262 0 00-1.493-3.773 8.9 8.9 0 00-2.869-2.849 8.335 8.335 0 00-4.5-1.12 9.239 9.239 0 00-3.832.786 9.005 9.005 0 00-3.026 2.2 10.143 10.143 0 00-1.985 3.34 12.226 12.226 0 00-.707 4.244 16.285 16.285 0 00.688 4.283 9.349 9.349 0 001.827 3.38 8.328 8.328 0 003.006 2.2 10.436 10.436 0 004.225.786 9.222 9.222 0 005.738-1.729 8.119 8.119 0 002.944-5.144zm21.968 6.366a4.725 4.725 0 01-2.4.511 2.874 2.874 0 01-2.063-.727 3.16 3.16 0 01-.766-2.378 7.992 7.992 0 01-3.2 2.378 10.586 10.586 0 01-3.949.727 10.581 10.581 0 01-2.613-.314 6.077 6.077 0 01-2.142-.982 4.715 4.715 0 01-1.434-1.749 5.884 5.884 0 01-.531-2.613 5.967 5.967 0 01.589-2.829 5.143 5.143 0 011.552-1.788 7.113 7.113 0 012.2-1.041q1.238-.354 2.535-.589 1.375-.275 2.613-.413a14.558 14.558 0 002.181-.393 3.633 3.633 0 001.493-.747 1.823 1.823 0 00.55-1.434 3.334 3.334 0 00-.413-1.768 2.83 2.83 0 00-1.061-1.022 4.314 4.314 0 00-1.454-.472 10.983 10.983 0 00-1.592-.118 7.064 7.064 0 00-3.537.806 3.419 3.419 0 00-1.533 3.046h-3.34a7.216 7.216 0 01.786-3.183 5.959 5.959 0 011.886-2.1 7.914 7.914 0 012.692-1.159 14.217 14.217 0 013.242-.354 19.016 19.016 0 012.731.2 7.138 7.138 0 012.456.806 4.709 4.709 0 011.768 1.709 5.471 5.471 0 01.668 2.869v10.453a7.818 7.818 0 00.138 1.729q.138.55.923.55a3.308 3.308 0 001.022-.2zM127.5-76.148a4.158 4.158 0 01-1.651.688q-1.022.216-2.142.354t-2.26.314a8.309 8.309 0 00-2.044.57 3.717 3.717 0 00-1.474 1.12 3.136 3.136 0 00-.57 1.985 2.716 2.716 0 00.334 1.4 2.785 2.785 0 00.865.924 3.627 3.627 0 001.238.511 6.867 6.867 0 001.493.157 7.913 7.913 0 002.829-.452 5.951 5.951 0 001.926-1.14 4.5 4.5 0 001.1-1.493 3.777 3.777 0 00.354-1.513z" class="cls-2" data-name="Path 1" transform="translate(-3.981 92.064)"/><path id="Path_4" d="M-17.256-15.772v-1h.645a1.748 1.748 0 01.247.018.692.692 0 01.222.068.413.413 0 01.158.143.453.453 0 01.061.251.527.527 0 01-.068.29.411.411 0 01-.183.154.794.794 0 01-.262.061q-.147.011-.312.011zm-.488-1.391v3.134h.488v-1.348h.516l.853 1.348h.524l-.9-1.384a1.063 1.063 0 00.588-.233.762.762 0 00.237-.62.824.824 0 00-.269-.674 1.284 1.284 0 00-.828-.222zm-1.169 1.556a2.364 2.364 0 01.169-.9 2.2 2.2 0 01.466-.721 2.187 2.187 0 01.7-.48 2.184 2.184 0 01.878-.176 2.141 2.141 0 01.868.176 2.2 2.2 0 01.7.48 2.2 2.2 0 01.466.721 2.364 2.364 0 01.169.9 2.431 2.431 0 01-.169.914 2.236 2.236 0 01-.466.728 2.17 2.17 0 01-.7.484 2.141 2.141 0 01-.868.176 2.184 2.184 0 01-.878-.176 2.159 2.159 0 01-.7-.484 2.236 2.236 0 01-.466-.728 2.431 2.431 0 01-.168-.914zm-.488 0a2.643 2.643 0 00.215 1.072 2.7 2.7 0 00.584.853 2.646 2.646 0 00.861.563 2.731 2.731 0 001.043.2 2.7 2.7 0 001.04-.2 2.615 2.615 0 00.853-.563 2.727 2.727 0 00.581-.853 2.643 2.643 0 00.215-1.072 2.582 2.582 0 00-.215-1.054 2.7 2.7 0 00-.581-.846 2.693 2.693 0 00-.853-.563 2.663 2.663 0 00-1.04-.2 2.689 2.689 0 00-1.043.2 2.725 2.725 0 00-.861.563 2.666 2.666 0 00-.584.846 2.582 2.582 0 00-.214 1.054z" class="cls-2" data-name="Path 4" transform="translate(149.337 22.804)"/><path id="Path_20" d="M3.134-4.335h1.353l3.066 8.048H6.1l-.756-2.051H2.221l-.744 2.051H.068zM4.972.523L3.777-2.791 2.593.523zm4.509-4.858V.489a2.858 2.858 0 00.411 1.7 1.617 1.617 0 001.392.558 1.571 1.571 0 001.37-.558 2.92 2.92 0 00.4-1.7v-4.824h1.364V.489a4.855 4.855 0 01-.225 1.584 2.71 2.71 0 01-.643 1.06 2.476 2.476 0 01-.992.6 4.162 4.162 0 01-1.285.186 3.113 3.113 0 01-2.345-.829 3.683 3.683 0 01-.8-2.632v-4.793zm8.488 1.184h-2.547v-1.184h6.448v1.184h-2.537v6.864h-1.364zM23-4.335h1.364v3.258h3.619v-3.258h1.364v8.048h-1.368V.185h-3.618v3.528H23zm11.619 8.251a4.042 4.042 0 01-1.561-.287 3.314 3.314 0 01-1.19-.829 3.67 3.67 0 01-.761-1.325A5.528 5.528 0 0130.843-.3a5.473 5.473 0 01.271-1.781 3.787 3.787 0 01.767-1.336 3.271 3.271 0 011.195-.834 4.023 4.023 0 011.544-.287 4.054 4.054 0 011.556.287 3.2 3.2 0 011.184.829 3.763 3.763 0 01.75 1.325 5.528 5.528 0 01.265 1.775 5.678 5.678 0 01-.259 1.787 3.754 3.754 0 01-.744 1.33 3.178 3.178 0 01-1.178.834 4.074 4.074 0 01-1.575.287zm-.011-1.172a2.04 2.04 0 001.759-.817 3.722 3.722 0 00.6-2.238 4.893 4.893 0 00-.152-1.274 2.824 2.824 0 00-.445-.958 1.982 1.982 0 00-.733-.609 2.316 2.316 0 00-1.026-.214 2.316 2.316 0 00-1.026.214 2.03 2.03 0 00-.738.609 2.689 2.689 0 00-.445.958 5.071 5.071 0 00-.147 1.274 3.748 3.748 0 00.592 2.238 2.037 2.037 0 001.761.817zm8.116-3.36a2.594 2.594 0 00.767-.1 1.154 1.154 0 00.479-.271.979.979 0 00.248-.423 1.946 1.946 0 00.073-.552 1.484 1.484 0 00-.085-.513.913.913 0 00-.282-.395 1.393 1.393 0 00-.524-.254 3.1 3.1 0 00-.812-.09h-1.375v2.598zm-.1-3.72a4.482 4.482 0 011.5.214 2.508 2.508 0 01.936.558 1.9 1.9 0 01.479.761 2.657 2.657 0 01.135.823 2.576 2.576 0 01-.31 1.319 2.2 2.2 0 01-1 .857l1.668 3.517H44.55L43.107.512q-.1.011-.214.017t-.237.006h-1.443v3.178h-1.341v-8.048zm4.554 0h1.364v8.049h-1.365zM49.747 2.7l4.329-5.862h-4.25v-1.173h5.862v1.025L51.37 2.53h4.475l-.158 1.184h-5.94zm7.215-7.034h5.355v1.172h-3.992v2.142h3.765V.162h-3.765v2.379h4.2l-.158 1.172h-5.406zm9.6 6.888a3.232 3.232 0 001.212-.2 2.06 2.06 0 00.823-.586 2.394 2.394 0 00.471-.918 4.485 4.485 0 00.147-1.195 3.394 3.394 0 00-.564-2.08 2.164 2.164 0 00-1.849-.75h-1.555v5.727zm.225-6.888a4.939 4.939 0 011.6.242 3.088 3.088 0 011.206.738 3.272 3.272 0 01.761 1.246 5.26 5.26 0 01.265 1.753 5.067 5.067 0 01-.282 1.764 3.372 3.372 0 01-.812 1.274 3.4 3.4 0 01-1.291.772 5.313 5.313 0 01-1.719.259h-2.632v-8.049zM77.545-.616a2.594 2.594 0 00.767-.1 1.154 1.154 0 00.479-.271.979.979 0 00.248-.423 1.946 1.946 0 00.073-.552 1.484 1.484 0 00-.085-.513.913.913 0 00-.282-.395 1.393 1.393 0 00-.524-.254 3.1 3.1 0 00-.812-.09h-1.374v2.598zm-.1-3.72a4.482 4.482 0 011.5.214 2.508 2.508 0 01.936.558 1.9 1.9 0 01.479.761 2.657 2.657 0 01.135.823 2.576 2.576 0 01-.31 1.319 2.2 2.2 0 01-1 .857l1.668 3.517h-1.482L77.929.512q-.1.011-.214.017t-.237.006h-1.443v3.178h-1.342v-8.048zm4.554 0h5.355v1.172h-3.992v2.142h3.765V.162h-3.765v2.379h4.2l-.158 1.172H82zm7.7 5.591a1.586 1.586 0 00.569 1.15 2.353 2.353 0 001.426.361 2.57 2.57 0 00.778-.1 1.408 1.408 0 00.507-.271.926.926 0 00.271-.4 1.507 1.507 0 00.079-.49 1.3 1.3 0 00-.056-.378.877.877 0 00-.2-.344 1.288 1.288 0 00-.395-.276 2.484 2.484 0 00-.636-.187L91.016.128a7.047 7.047 0 01-1.082-.282 2.489 2.489 0 01-.795-.446 1.752 1.752 0 01-.485-.676 2.581 2.581 0 01-.163-.975 2.082 2.082 0 01.231-1 2.075 2.075 0 01.637-.716 2.862 2.862 0 01.964-.428 4.941 4.941 0 011.212-.141 4.389 4.389 0 011.4.192 2.639 2.639 0 01.913.5 2.079 2.079 0 01.53.716 3.313 3.313 0 01.248.845l-1.285.2a1.8 1.8 0 00-.547-1 1.9 1.9 0 00-1.234-.327 3.231 3.231 0 00-.806.085 1.444 1.444 0 00-.519.237.882.882 0 00-.282.349 1.034 1.034 0 00-.085.411 1.01 1.01 0 00.287.789 2.193 2.193 0 001.009.406l1.116.214a3.644 3.644 0 011.871.806 2.159 2.159 0 01.6 1.64 2.364 2.364 0 01-.186.941 2.012 2.012 0 01-.569.755 2.835 2.835 0 01-.953.507 4.27 4.27 0 01-1.325.186 4.01 4.01 0 01-2.424-.648 2.559 2.559 0 01-.969-2.012zm6.425-5.591h5.355v1.172h-3.992v2.142h3.765V.162h-3.765v2.379h4.2l-.158 1.172h-5.406zm8.285 0V2.53h3.991l-.169 1.184h-5.185v-8.049zm6.516 0V2.53h3.991l-.169 1.184h-5.187v-8.049zm5.152 0h5.355v1.172h-3.991v2.142h3.759V.162h-3.765v2.379h4.2l-.158 1.172h-5.411zm9.773 3.72a2.594 2.594 0 00.767-.1 1.154 1.154 0 00.479-.271.979.979 0 00.248-.423 1.946 1.946 0 00.073-.552 1.484 1.484 0 00-.085-.513.913.913 0 00-.282-.395 1.393 1.393 0 00-.524-.254 3.1 3.1 0 00-.812-.09h-1.375v2.598zm-.1-3.72a4.482 4.482 0 011.5.214 2.508 2.508 0 01.936.558 1.9 1.9 0 01.479.761 2.657 2.657 0 01.135.823 2.576 2.576 0 01-.31 1.319 2.2 2.2 0 01-1 .857l1.668 3.517h-1.488l-1.443-3.2q-.1.011-.214.017t-.237.006h-1.443v3.177H123v-8.048z" class="cls-2" data-name="Path 20" transform="translate(-.068 38.105)"/></g><path id="Line_2" fill="none" stroke="#cecece" d="M0 64.428V0" data-name="Line 2" transform="translate(486.537 45.5)"/><g id="logo-sidebar-light" transform="translate(255 59.384)"><g id="Group_67" data-name="Group 67"><g id="Group_66" class="cls-4" data-name="Group 66"><path id="Path_45" d="M64.2 57.011l-5.452-1.327c-2.678-.646-4.128-1.331-4.128-3.1 0-2.048 2.03-3.422 5.052-3.422 3.528 0 5.656 1.624 6.154 4.7l.049.308 8.47-.575-.07-.377c-1.259-6.771-6.48-10.654-14.327-10.654-8.48 0-13.959 4.12-13.959 10.5 0 7.363 5.872 8.893 10.16 10.013l5.2 1.338c3.442.876 5.061 1.538 5.061 3.812 0 2.234-2.211 3.678-5.632 3.678-2.479 0-6.711-.746-7.2-5.734l-.034-.339-8.644.869.04.343c.82 7.127 6.852 11.556 15.738 11.556 9.014 0 14.613-4.091 14.613-10.675 0-8.114-5.889-9.6-11.091-10.915" class="cls-2" data-name="Path 45" transform="translate(-44.894 -42.56)"/><path id="Path_46" fill="#db2627" d="M70.984 77.752h8.489l12.572-34.524h-8.538z" data-name="Path 46" transform="translate(-41.37 -42.47)"/><path id="Path_47" d="M120 77.752h25.941v-7.137h-17.176v-7.183H139.1V56.71h-10.335v-6.538h17.177v-6.944H120z" class="cls-2" data-name="Path 47" transform="translate(-34.748 -42.47)"/></g></g><g id="Group_69" data-name="Group 69"><g id="Group_68" clip-path="url(#clip-path-2)" data-name="Group 68"><path id="Path_48" d="M169.354 59.409a7.187 7.187 0 004.055-6.724c0-5.833-4.284-9.456-11.182-9.456h-17.382v34.524h18.076c7.263 0 11.6-3.873 11.6-10.36a8.393 8.393 0 00-5.167-7.984m-15.77-2.35v-7.091h6.967c2.677 0 4.15 1.26 4.15 3.546s-1.473 3.545-4.15 3.545zm12.051 9.966c0 2.477-1.594 3.841-4.489 3.841h-7.562v-7.682h7.562c2.9 0 4.489 1.364 4.489 3.841" class="cls-2" data-name="Path 48" transform="translate(-31.392 -42.47)"/><path id="Path_49" d="M226.945 64.84c4.367-1.669 6.764-5.311 6.764-10.3 0-7.084-4.817-11.313-12.885-11.313H203.55v34.526h8.74v-11.9h5.558l6.808 11.9h10.17zm-2.121-10.3c0 2.817-1.883 4.369-5.3 4.369h-7.234v-8.738h7.234c3.417 0 5.3 1.553 5.3 4.37" class="cls-2" data-name="Path 49" transform="translate(-23.462 -42.47)"/></g></g><g id="Group_71" data-name="Group 71"><g id="Group_70" class="cls-4" data-name="Group 70"><path id="Path_50" d="M203.627 70.245c-.627 0-1.107-.116-1.107-1.562V54c0-6.994-4.973-10.847-14-10.847-7.7 0-13.343 3.843-14.727 10.03l-.079.356 8.6 1.3.083-.285a5.935 5.935 0 015.958-4.572c2.236 0 4.9.632 4.9 3.646 0 1.587-1.14 2.536-7.368 3.319-9.44 1.144-13.292 4.308-13.292 10.922 0 5.872 4.635 9.973 11.27 9.973 4.188 0 7.99-1.522 10.026-3.992 1.039 2.52 3.246 3.648 7.1 3.648a15.871 15.871 0 004.022-.431l.238-.075v-7.121l-.46.17a3.875 3.875 0 01-1.16.2m-10.372-8.829v2.692a6.953 6.953 0 01-7.169 7.135c-2.54 0-4.058-1.414-4.058-3.783 0-3.128 2.723-4.218 5-4.581a22.467 22.467 0 006.225-1.463" class="cls-2" data-name="Path 50" transform="translate(-27.644 -42.479)"/><path id="Path_51" d="M104.154 43.227H90.938l5.32 7.145h-6.152v27.38h14.048c11.384 0 17.653-6.131 17.653-17.262s-6.269-17.262-17.653-17.262m-1.249 27.581h-4.06V50.171h4.06c6.927 0 10.017 3.183 10.017 10.318s-3.09 10.319-10.017 10.319" class="cls-2" data-name="Path 51" transform="translate(-38.787 -42.47)"/></g></g></g></g></svg>