<svg xmlns="http://www.w3.org/2000/svg" id="logo-astrea" width="300" height="76.482"><defs><style>.cls-1{fill:#fff}</style></defs><path id="Path_2" d="M243.912-53.238h25.85a15.411 15.411 0 00-1.131-4.918 13.118 13.118 0 00-2.611-4.047 11.959 11.959 0 00-3.96-2.742 12.882 12.882 0 00-5.179-1 12.655 12.655 0 00-5.092 1 12.81 12.81 0 00-4 2.7 12.68 12.68 0 00-2.7 4.047 15.137 15.137 0 00-1.177 4.96zM236.775-40.7h7.311a10.52 10.52 0 003.96 6.615 12.8 12.8 0 007.7 2.176 15.324 15.324 0 006.354-1.219 12.453 12.453 0 004.439-3.264 12.715 12.715 0 002.524-4.7 17.864 17.864 0 00.7-5.614h-33.684a35.824 35.824 0 01.74-8.617 24.942 24.942 0 013.307-8.356 19.708 19.708 0 016.354-6.31 18.46 18.46 0 019.966-2.481 20.462 20.462 0 018.486 1.741 19.944 19.944 0 016.7 4.874 22.466 22.466 0 014.4 7.4 27.078 27.078 0 011.567 9.4 36.071 36.071 0 01-1.523 9.487 20.706 20.706 0 01-4.047 7.485 18.446 18.446 0 01-6.658 4.874 23.113 23.113 0 01-9.356 1.741q-7.659 0-12.707-3.83T236.775-40.7z" class="cls-1" data-name="Path 2" transform="translate(-86.839 84.919)"/><path id="Path_1" d="M47.232-33.75a10.464 10.464 0 01-5.309 1.131 6.366 6.366 0 01-4.569-1.61q-1.7-1.61-1.7-5.266a17.7 17.7 0 01-7.093 5.266 23.447 23.447 0 01-8.747 1.61 23.434 23.434 0 01-5.788-.7 13.458 13.458 0 01-4.742-2.171 10.443 10.443 0 01-3.177-3.873 13.031 13.031 0 01-1.175-5.788 13.217 13.217 0 011.306-6.267 11.39 11.39 0 013.438-3.96 15.752 15.752 0 014.874-2.306q2.742-.783 5.614-1.306 3.046-.609 5.788-.914a32.247 32.247 0 004.831-.87 8.048 8.048 0 003.307-1.654 4.037 4.037 0 001.218-3.172 7.384 7.384 0 00-.914-3.917 6.267 6.267 0 00-2.35-2.263 9.555 9.555 0 00-3.22-1.044 24.32 24.32 0 00-3.524-.266 15.646 15.646 0 00-7.833 1.784q-3.133 1.784-3.394 6.745h-7.4a15.98 15.98 0 011.741-7.05 13.2 13.2 0 014.178-4.656 17.528 17.528 0 015.962-2.568 31.486 31.486 0 017.181-.783 42.123 42.123 0 016.049.435 15.81 15.81 0 015.44 1.784 10.43 10.43 0 013.917 3.786 12.116 12.116 0 011.48 6.354v23.152a17.314 17.314 0 00.3 3.83q.3 1.219 2.045 1.219a7.326 7.326 0 002.263-.435zM35.221-56.814a9.208 9.208 0 01-3.656 1.523q-2.263.479-4.743.783t-5 .7a18.4 18.4 0 00-4.526 1.262 8.233 8.233 0 00-3.264 2.481 6.947 6.947 0 00-1.262 4.4 6.015 6.015 0 00.74 3.09 6.167 6.167 0 001.915 2.045 8.033 8.033 0 002.742 1.131 15.212 15.212 0 003.307.348 17.525 17.525 0 006.267-1A13.181 13.181 0 0032-42.584a9.957 9.957 0 002.437-3.307 8.365 8.365 0 00.783-3.351zm23.848 9.052h-7.4a16.282 16.282 0 001.741 7.093 13.093 13.093 0 004.178 4.7 17.508 17.508 0 006.007 2.569 31.655 31.655 0 007.137.783 36.558 36.558 0 006.832-.653 18.554 18.554 0 006.18-2.306 13.266 13.266 0 004.439-4.352 12.534 12.534 0 001.7-6.789 10.609 10.609 0 00-1.262-5.4 11.266 11.266 0 00-3.307-3.612 17.737 17.737 0 00-4.7-2.306 55.557 55.557 0 00-5.44-1.48q-2.611-.609-5.222-1.175a30.128 30.128 0 01-4.7-1.393 10.77 10.77 0 01-3.438-2.089 4.166 4.166 0 01-1.349-3.177 4.39 4.39 0 01.87-2.829 6.223 6.223 0 012.263-1.741 11.286 11.286 0 013.09-.914 22.013 22.013 0 013.351-.261 16.8 16.8 0 013.612.392 11.072 11.072 0 013.264 1.262 7.409 7.409 0 012.437 2.306 7.488 7.488 0 011.131 3.612h7.4a16.526 16.526 0 00-1.741-6.832 11.712 11.712 0 00-3.96-4.352 16.311 16.311 0 00-5.7-2.263 35.526 35.526 0 00-7.05-.653 24.85 24.85 0 00-5.962.74 17.982 17.982 0 00-5.4 2.263 12.454 12.454 0 00-3.917 3.96 10.781 10.781 0 00-1.523 5.831 9.839 9.839 0 002.17 6.793 14.685 14.685 0 005.44 3.786 36.806 36.806 0 007.093 2.089q3.83.74 7.093 1.654a18.516 18.516 0 015.44 2.394 4.925 4.925 0 012.176 4.352A5.451 5.451 0 0181-42.323a6.619 6.619 0 01-2.655 2.045 13.4 13.4 0 01-3.525.957 27.086 27.086 0 01-3.656.261 21.927 21.927 0 01-4.4-.435 12.332 12.332 0 01-3.83-1.436 7.873 7.873 0 01-2.742-2.7 8.328 8.328 0 01-1.123-4.131zm49.7-30.811v-13.491h-7.4v13.491h-7.66v6.528h7.659v28.635a17.1 17.1 0 00.609 5.048 6.137 6.137 0 001.871 2.959 7.223 7.223 0 003.307 1.436 26.565 26.565 0 004.918.392h5.657V-40.1h-3.394a24.67 24.67 0 01-2.829-.131 3.654 3.654 0 01-1.7-.566 2.151 2.151 0 01-.827-1.219 8.074 8.074 0 01-.218-2.089v-27.941h8.965v-6.528zm17.32 0v45h7.4v-20.021a30.764 30.764 0 01.87-7.7A14.764 14.764 0 01137.14-67a11.937 11.937 0 015.048-3.568 20.924 20.924 0 017.572-1.218v-7.833a16.627 16.627 0 00-9.922 2.437 20.041 20.041 0 00-6.615 8.094h-.174v-9.487zm106.53 18.19H206.77a15.409 15.409 0 011.13-4.917 13.115 13.115 0 012.611-4.047 11.959 11.959 0 013.96-2.742 12.882 12.882 0 015.179-1 12.656 12.656 0 015.092 1 12.81 12.81 0 014 2.7 12.68 12.68 0 012.7 4.047 15.136 15.136 0 011.177 4.959zm7.137 12.533h-7.311a10.52 10.52 0 01-3.96 6.615 12.8 12.8 0 01-7.7 2.176 15.325 15.325 0 01-6.354-1.219 12.454 12.454 0 01-4.439-3.264 12.715 12.715 0 01-2.524-4.7 17.861 17.861 0 01-.7-5.614h33.683a35.827 35.827 0 00-.74-8.617 24.943 24.943 0 00-3.307-8.355 19.708 19.708 0 00-6.354-6.31 18.46 18.46 0 00-9.966-2.481 20.462 20.462 0 00-8.486 1.741A19.945 19.945 0 00204.9-73a22.466 22.466 0 00-4.4 7.4 27.078 27.078 0 00-1.567 9.4 36.068 36.068 0 001.523 9.487 20.705 20.705 0 004.047 7.485 18.445 18.445 0 006.658 4.874 23.114 23.114 0 009.356 1.741q7.659 0 12.707-3.83t6.532-11.407zm48.653 14.1a10.464 10.464 0 01-5.309 1.131 6.366 6.366 0 01-4.569-1.61q-1.7-1.61-1.7-5.266a17.7 17.7 0 01-7.093 5.266 23.446 23.446 0 01-8.747 1.61 23.433 23.433 0 01-5.788-.7 13.458 13.458 0 01-4.744-2.176 10.443 10.443 0 01-3.177-3.873 13.032 13.032 0 01-1.175-5.788 13.217 13.217 0 011.306-6.267 11.391 11.391 0 013.438-3.96 15.753 15.753 0 014.874-2.306q2.742-.783 5.614-1.306 3.046-.609 5.788-.914a32.246 32.246 0 004.831-.87 8.048 8.048 0 003.307-1.654 4.037 4.037 0 001.219-3.177 7.384 7.384 0 00-.914-3.917 6.268 6.268 0 00-2.35-2.263 9.555 9.555 0 00-3.22-1.039 24.32 24.32 0 00-3.525-.261 15.646 15.646 0 00-7.833 1.784q-3.133 1.784-3.394 6.745h-7.4a15.981 15.981 0 011.741-7.05 13.2 13.2 0 014.178-4.656 17.528 17.528 0 015.962-2.568 31.486 31.486 0 017.18-.783 42.124 42.124 0 016.049.435A15.81 15.81 0 01278.4-77.4a10.43 10.43 0 013.917 3.786 12.117 12.117 0 011.48 6.354v23.152a17.315 17.315 0 00.3 3.83q.3 1.219 2.045 1.219a7.326 7.326 0 002.263-.435zM276.4-56.814a9.208 9.208 0 01-3.656 1.523q-2.263.479-4.743.783t-5 .7a18.4 18.4 0 00-4.526 1.262 8.232 8.232 0 00-3.264 2.481 6.947 6.947 0 00-1.262 4.4 6.016 6.016 0 00.74 3.09 6.167 6.167 0 001.915 2.045 8.034 8.034 0 002.742 1.131 15.212 15.212 0 003.307.348 17.525 17.525 0 006.267-1 13.181 13.181 0 004.265-2.524 9.959 9.959 0 002.437-3.307 8.366 8.366 0 00.783-3.351z" class="cls-1" data-name="Path 1" transform="translate(-2.551 92.064)"/><path id="Path_3" d="M4.085-6.106H2.8V-15.4H.184v-1.14h6.532v1.14H4.085zm10.579 0h-1.285v-5.027H9.8v5.027H8.513v-10.433H9.8v4.267h3.58v-4.267h1.286zm2.528-10.433h5.392v1.14h-4.106v3.273h3.872v1.14h-3.872v3.741h4.281v1.14h-5.567zm11.938 0h2.66q.219 0 .548.015a3.936 3.936 0 01.687.095 3.04 3.04 0 01.716.263 2.084 2.084 0 01.643.519 2.6 2.6 0 01.46.847 3.908 3.908 0 01.175 1.257 3.545 3.545 0 01-.219 1.293 2.618 2.618 0 01-.621.95 2.627 2.627 0 01-.957.584 3.6 3.6 0 01-1.213.2h-1.593v4.413H29.13zm1.286 4.968h1.534a1.682 1.682 0 001.213-.5 2.053 2.053 0 00.511-1.534 2.086 2.086 0 00-.424-1.374 1.706 1.706 0 00-1.388-.511h-1.446zm6.575-4.968h5.392v1.14h-4.106v3.273h3.873v1.14h-3.873v3.741h4.281v1.14h-5.566zm9.016 9.381h1.344a2.074 2.074 0 001.322-.387 2.47 2.47 0 00.745-.986 4.524 4.524 0 00.329-1.337q.073-.738.073-1.439 0-.76-.058-1.505a4.452 4.452 0 00-.3-1.337 2.235 2.235 0 00-.738-.964 2.245 2.245 0 00-1.374-.373h-1.343zm-1.286-9.381h2.791a3.929 3.929 0 011.936.409 2.768 2.768 0 011.1 1.118 4.7 4.7 0 01.5 1.658 16.653 16.653 0 01.117 2.031 12.479 12.479 0 01-.146 1.929 5.153 5.153 0 01-.541 1.666A3.179 3.179 0 0149.4-6.552a3.165 3.165 0 01-1.753.446h-2.926zm10.871 0h1.724l2.806 10.433h-1.344l-.745-2.864H54.7l-.774 2.864h-1.344zm-.628 6.517h2.806l-1.33-5.041h-.029zm6.722-6.517h1.286v9.293h4.237v1.14h-5.523zM79.5-6.106h-1.288v-5.027h-3.58v5.027h-1.286v-10.433h1.286v4.267h3.58v-4.267H79.5zm4.574-10.433H85.8l2.8 10.433h-1.343l-.746-2.864H83.18l-.774 2.864h-1.345zm-.628 6.517h2.805l-1.33-5.041h-.031zm6.722-6.517h1.662l3.448 8.709h.029v-8.709h1.286v10.433h-1.767l-3.346-8.446h-.03v8.446h-1.286zm10.374 9.381h1.344a2.074 2.074 0 001.322-.387 2.47 2.47 0 00.745-.986 4.525 4.525 0 00.329-1.337q.073-.738.073-1.439 0-.76-.058-1.505a4.451 4.451 0 00-.3-1.337 2.234 2.234 0 00-.738-.964 2.245 2.245 0 00-1.374-.373h-1.344zm-1.286-9.381h2.791a3.929 3.929 0 011.936.409 2.768 2.768 0 011.1 1.118 4.7 4.7 0 01.5 1.658 16.658 16.658 0 01.117 2.031 12.477 12.477 0 01-.146 1.929 5.153 5.153 0 01-.541 1.666 3.18 3.18 0 01-1.081 1.176 3.165 3.165 0 01-1.753.446h-2.926zm17.593 2.7a3.3 3.3 0 00-.08-.753 1.473 1.473 0 00-.27-.584 1.292 1.292 0 00-.5-.38 1.9 1.9 0 00-.767-.139 1.771 1.771 0 00-1.271.431A1.664 1.664 0 00113.5-14a1.6 1.6 0 00.365 1.125 2.632 2.632 0 00.913.628 10.179 10.179 0 001.184.416 5.549 5.549 0 011.184.49 2.662 2.662 0 01.913.847A2.635 2.635 0 01118.424-9a3.353 3.353 0 01-.3 1.505 2.632 2.632 0 01-.767.95 2.916 2.916 0 01-1.045.5 4.6 4.6 0 01-1.132.146 4.283 4.283 0 01-1.527-.234 2.266 2.266 0 01-.964-.672 2.658 2.658 0 01-.511-1.089 6.487 6.487 0 01-.153-1.483h1.286a8.582 8.582 0 00.044.869 2.062 2.062 0 00.234.782 1.39 1.39 0 00.584.563 2.342 2.342 0 001.1.212 1.947 1.947 0 00.716-.132 1.661 1.661 0 00.577-.373 1.751 1.751 0 00.38-.577 1.975 1.975 0 00.139-.76 1.732 1.732 0 00-.212-.906 1.948 1.948 0 00-.555-.592 3.146 3.146 0 00-.789-.395l-.911-.314q-.46-.161-.906-.358a2.894 2.894 0 01-.789-.511 2.334 2.334 0 01-.555-.8 2.982 2.982 0 01-.212-1.2 4.252 4.252 0 01.1-.855 2.454 2.454 0 01.431-.942 2.624 2.624 0 01.928-.767 3.441 3.441 0 011.593-.314 2.913 2.913 0 012.2.731 3.149 3.149 0 01.723 2.177zm5.757-2.7h1.724l2.806 10.433h-1.344l-.745-2.864h-3.332l-.774 2.864h-1.344zm-.628 6.517h2.805l-1.33-5.041h-.029zm6.722-6.517h1.666l3.448 8.709h.029v-8.709h1.286v10.433h-1.768l-3.346-8.446h-.029v8.446H128.7zm8.957 0h1.286v10.433h-1.286zm6.985 10.433h-1.286V-15.4h-2.616v-1.14h6.532v1.14h-2.63zm4.427-10.433h1.286v10.433h-1.286zm3.3 9.352l4.69-8.212h-4.427v-1.14h5.768v1.184l-4.69 8.11h4.749v1.14h-6.093zm8.11-9.352h5.392v1.14h-4.106v3.273h3.872v1.14h-3.872v3.741h4.281v1.14h-5.567zm7.6 0h3.375a2.711 2.711 0 011.958.687 2.547 2.547 0 01.716 1.929 4.539 4.539 0 01-.08.847 2.75 2.75 0 01-.27.782 2.213 2.213 0 01-.5.628 1.689 1.689 0 01-.76.373v.029a1.45 1.45 0 011.059.57 2.135 2.135 0 01.416 1.169l.088 1.783a5.014 5.014 0 00.066.716 2.992 2.992 0 00.117.46.826.826 0 00.161.285 1.039 1.039 0 00.212.175h-1.549a.667.667 0 01-.146-.256 2.935 2.935 0 01-.1-.387 4.439 4.439 0 01-.066-.446q-.022-.226-.037-.416l-.088-1.622a2.289 2.289 0 00-.2-.84 1.212 1.212 0 00-.373-.453 1.086 1.086 0 00-.475-.19 3.563 3.563 0 00-.5-.037h-1.739v4.647h-1.286zm1.286 4.734h1.271q.278 0 .65-.029a1.7 1.7 0 00.709-.219 1.493 1.493 0 00.563-.6 2.45 2.45 0 00.226-1.169 1.568 1.568 0 00-.489-1.22 2 2 0 00-1.4-.446h-1.534z" class="cls-1" data-name="Path 3" transform="translate(-.184 82.383)"/><path id="Path_4" d="M-14.651-12.732v-2.208h1.429a3.872 3.872 0 01.548.04 1.534 1.534 0 01.492.151.915.915 0 01.349.318 1 1 0 01.135.556 1.168 1.168 0 01-.151.643.91.91 0 01-.405.341 1.758 1.758 0 01-.58.135q-.326.024-.691.024zm-1.08-3.081v6.941h1.08v-2.986h1.144l1.89 2.986h1.159l-1.985-3.065a2.355 2.355 0 001.3-.516 1.689 1.689 0 00.524-1.374 1.825 1.825 0 00-.6-1.493 2.844 2.844 0 00-1.834-.492zm-2.589 3.447a5.237 5.237 0 01.373-1.985 4.88 4.88 0 011.032-1.6 4.844 4.844 0 011.556-1.064 4.837 4.837 0 011.946-.389 4.742 4.742 0 011.922.389 4.868 4.868 0 011.549 1.064 4.88 4.88 0 011.032 1.6 5.236 5.236 0 01.373 1.985 5.383 5.383 0 01-.373 2.025A4.951 4.951 0 01-9.942-8.73a4.806 4.806 0 01-1.548 1.072 4.742 4.742 0 01-1.922.389 4.837 4.837 0 01-1.946-.389 4.783 4.783 0 01-1.556-1.072 4.951 4.951 0 01-1.032-1.612 5.383 5.383 0 01-.374-2.025zm-1.08 0a5.854 5.854 0 00.476 2.374A5.974 5.974 0 00-17.629-8.1a5.859 5.859 0 001.906 1.247 6.048 6.048 0 002.311.445 5.989 5.989 0 002.3-.445A5.79 5.79 0 00-9.219-8.1a6.04 6.04 0 001.286-1.89 5.854 5.854 0 00.476-2.374 5.719 5.719 0 00-.476-2.336 5.969 5.969 0 00-1.286-1.874 5.964 5.964 0 00-1.89-1.247 5.9 5.9 0 00-2.3-.453 5.955 5.955 0 00-2.311.453 6.035 6.035 0 00-1.906 1.247 5.9 5.9 0 00-1.298 1.874 5.719 5.719 0 00-.476 2.333z" class="cls-1" data-name="Path 4" transform="translate(307.456 28.306)"/></svg>