<svg xmlns="http://www.w3.org/2000/svg" width="344.932" height="87.937"><path d="M180.599 36.426h29.721a17.719 17.719 0 00-1.3-5.654 15.083 15.083 0 00-3-4.653 13.751 13.751 0 00-4.553-3.152 14.811 14.811 0 00-5.958-1.152 14.551 14.551 0 00-5.854 1.151 14.729 14.729 0 00-4.6 3.1 14.578 14.578 0 00-3.1 4.653 17.405 17.405 0 00-1.356 5.707zm-8.206 14.41h8.406a12.1 12.1 0 004.553 7.605 14.722 14.722 0 008.856 2.5 17.619 17.619 0 007.301-1.398 14.318 14.318 0 005.1-3.753 14.619 14.619 0 002.9-5.4 20.538 20.538 0 00.8-6.455h-38.717a41.189 41.189 0 01.851-9.907 28.677 28.677 0 013.8-9.607 22.659 22.659 0 017.305-7.255 21.225 21.225 0 0111.461-2.856 23.527 23.527 0 019.757 2 22.931 22.931 0 017.706 5.6 25.83 25.83 0 015.054 8.506 31.134 31.134 0 011.8 10.808 41.475 41.475 0 01-1.751 10.908 23.806 23.806 0 01-4.653 8.606 21.208 21.208 0 01-7.656 5.6 26.575 26.575 0 01-10.758 2q-8.806 0-14.611-4.4t-7.504-13.102z" data-name="Path 2"/><path d="M51.373 67.048a12.032 12.032 0 01-6.1 1.3 7.32 7.32 0 01-5.254-1.851q-1.951-1.851-1.951-6.054a20.351 20.351 0 01-8.162 6.055 26.958 26.958 0 01-10.057 1.851 26.944 26.944 0 01-6.655-.8 15.474 15.474 0 01-5.454-2.5 12.007 12.007 0 01-3.651-4.455 14.983 14.983 0 01-1.351-6.655 15.2 15.2 0 011.5-7.205 13.1 13.1 0 013.953-4.553 18.112 18.112 0 015.6-2.652q3.152-.9 6.455-1.5 3.5-.7 6.655-1.051a37.077 37.077 0 005.554-1 9.254 9.254 0 003.8-1.9 4.642 4.642 0 001.4-3.653 8.49 8.49 0 00-1.051-4.5 7.206 7.206 0 00-2.7-2.6 10.987 10.987 0 00-3.7-1.2 27.963 27.963 0 00-4.053-.3 17.989 17.989 0 00-9.003 2.039q-3.6 2.052-3.9 7.756H4.739a18.374 18.374 0 012-8.106 15.175 15.175 0 014.8-5.354 20.154 20.154 0 016.855-2.952 36.2 36.2 0 018.256-.9 48.43 48.43 0 016.955.5 18.178 18.178 0 016.26 2.056 11.992 11.992 0 014.5 4.353 13.931 13.931 0 011.7 7.305v26.619a19.907 19.907 0 00.35 4.4q.35 1.4 2.352 1.4a8.423 8.423 0 002.6-.5zm-13.81-26.519a10.587 10.587 0 01-4.2 1.751q-2.6.55-5.454.9t-5.754.8a21.157 21.157 0 00-5.2 1.451 9.466 9.466 0 00-3.753 2.852 7.987 7.987 0 00-1.451 5.054 6.916 6.916 0 00.851 3.553 7.09 7.09 0 002.2 2.352 9.236 9.236 0 003.152 1.3 17.491 17.491 0 003.8.4 20.149 20.149 0 007.205-1.151 15.155 15.155 0 004.9-2.9 11.448 11.448 0 002.8-3.8 9.618 9.618 0 00.9-3.853zm27.42 10.408h-8.506a18.72 18.72 0 002 8.156 15.053 15.053 0 004.8 5.4 20.131 20.131 0 006.9 2.952 36.4 36.4 0 008.206.9 42.033 42.033 0 007.856-.751 21.334 21.334 0 007.105-2.652 15.253 15.253 0 005.1-5 14.411 14.411 0 001.951-7.806 12.2 12.2 0 00-1.451-6.2 12.954 12.954 0 00-3.8-4.153 20.394 20.394 0 00-5.4-2.652 63.878 63.878 0 00-6.255-1.7q-3-.7-6-1.351a34.642 34.642 0 01-5.4-1.6 12.383 12.383 0 01-3.953-2.4 4.79 4.79 0 01-1.551-3.653 5.047 5.047 0 011-3.252 7.155 7.155 0 012.6-2 12.977 12.977 0 013.553-1.051 25.311 25.311 0 013.853-.3 19.314 19.314 0 014.153.45 12.731 12.731 0 013.753 1.451 8.519 8.519 0 012.8 2.652 8.61 8.61 0 011.3 4.153h8.509a19 19 0 00-2-7.856 13.466 13.466 0 00-4.553-5 18.753 18.753 0 00-6.556-2.61 40.847 40.847 0 00-8.106-.751 28.571 28.571 0 00-6.855.851 20.675 20.675 0 00-6.2 2.6 14.319 14.319 0 00-4.5 4.553 12.4 12.4 0 00-1.751 6.7q0 5 2.5 7.806a16.885 16.885 0 006.255 4.353 42.318 42.318 0 008.156 2.4q4.4.851 8.156 1.9a21.289 21.289 0 016.255 2.752 5.663 5.663 0 012.5 5 6.268 6.268 0 01-1.2 3.953 7.61 7.61 0 01-3.052 2.352 15.409 15.409 0 01-4.053 1.1 31.143 31.143 0 01-4.2.3 25.211 25.211 0 01-5.054-.5 14.179 14.179 0 01-4.4-1.651 9.052 9.052 0 01-3.152-3.1 9.575 9.575 0 01-1.313-4.745zm57.141-35.426V0h-8.506v15.511h-8.806v7.505h8.806V55.94a19.658 19.658 0 00.7 5.8 7.056 7.056 0 002.152 3.4 8.305 8.305 0 003.8 1.651 30.544 30.544 0 005.654.45h6.5v-7.505h-3.9a28.365 28.365 0 01-3.252-.15 4.2 4.2 0 01-1.951-.65 2.473 2.473 0 01-.951-1.4 9.282 9.282 0 01-.25-2.4V23.017h10.307v-7.505zm19.914 0v51.737h8.506V44.232a35.372 35.372 0 011-8.856 16.976 16.976 0 013.2-6.555 13.725 13.725 0 015.8-4.1 24.058 24.058 0 018.706-1.4v-9.006q-6.9-.2-11.408 2.8a23.043 23.043 0 00-7.605 9.307h-.2V15.511zm122.489 20.915h-29.721a17.718 17.718 0 011.3-5.654 15.081 15.081 0 013-4.653 13.75 13.75 0 014.553-3.152 14.811 14.811 0 015.954-1.151 14.552 14.552 0 015.854 1.151 14.729 14.729 0 014.6 3.1 14.58 14.58 0 013.1 4.653 17.4 17.4 0 011.36 5.706zm8.206 14.41h-8.406a12.1 12.1 0 01-4.553 7.605 14.723 14.723 0 01-8.856 2.5 17.62 17.62 0 01-7.305-1.4 14.319 14.319 0 01-5.1-3.753 14.619 14.619 0 01-2.9-5.4 20.536 20.536 0 01-.8-6.455h38.728a41.194 41.194 0 00-.851-9.907 28.679 28.679 0 00-3.8-9.607 22.66 22.66 0 00-7.305-7.255 21.225 21.225 0 00-11.458-2.852 23.526 23.526 0 00-9.757 2 22.931 22.931 0 00-7.706 5.6 25.83 25.83 0 00-5.054 8.506 31.134 31.134 0 00-1.8 10.808 41.469 41.469 0 001.751 10.908 23.806 23.806 0 004.645 8.61 21.208 21.208 0 007.656 5.6 26.576 26.576 0 0010.758 2q8.806 0 14.611-4.4t7.502-13.107zm55.94 16.212a12.032 12.032 0 01-6.1 1.3 7.32 7.32 0 01-5.254-1.851q-1.951-1.851-1.951-6.054a20.351 20.351 0 01-8.156 6.054 26.958 26.958 0 01-10.057 1.851 26.943 26.943 0 01-6.655-.8 15.473 15.473 0 01-5.454-2.5 12.007 12.007 0 01-3.653-4.453 14.984 14.984 0 01-1.351-6.655 15.2 15.2 0 011.5-7.205 13.1 13.1 0 013.953-4.553 18.112 18.112 0 015.6-2.652q3.152-.9 6.455-1.5 3.5-.7 6.655-1.051a37.075 37.075 0 005.554-1 9.253 9.253 0 003.8-1.9 4.642 4.642 0 001.4-3.653 8.491 8.491 0 00-1.051-4.5 7.207 7.207 0 00-2.7-2.6 10.987 10.987 0 00-3.7-1.2 27.963 27.963 0 00-4.053-.3 17.989 17.989 0 00-9.007 2.051q-3.6 2.052-3.9 7.756h-8.506a18.375 18.375 0 012-8.106 15.175 15.175 0 014.8-5.354 20.154 20.154 0 016.855-2.952 36.2 36.2 0 018.256-.9 48.433 48.433 0 016.955.5 18.177 18.177 0 016.254 2.051 11.992 11.992 0 014.5 4.353 13.931 13.931 0 011.7 7.305v26.619a19.913 19.913 0 00.35 4.4q.35 1.4 2.352 1.4a8.424 8.424 0 002.6-.5zm-13.81-26.519a10.588 10.588 0 01-4.2 1.751q-2.6.55-5.454.9t-5.754.8a21.156 21.156 0 00-5.2 1.451 9.465 9.465 0 00-3.753 2.852 7.987 7.987 0 00-1.451 5.054 6.917 6.917 0 00.851 3.553 7.091 7.091 0 002.2 2.352 9.237 9.237 0 003.152 1.3 17.489 17.489 0 003.8.4 20.15 20.15 0 007.205-1.151 15.155 15.155 0 004.9-2.9 11.449 11.449 0 002.8-3.8 9.618 9.618 0 00.9-3.853z" data-name="Path 1"/><path d="M4.486 87.702H3.007V77.015H0v-1.31h7.51v1.31H4.486zm12.164 0h-1.479v-5.779h-4.116v5.779H9.576v-12h1.478v4.913h4.116v-4.906h1.478zm2.906-12h6.2v1.31h-4.722v3.763h4.452v1.31h-4.452v4.3h4.923v1.31h-6.4zm13.726 0h3.058q.252 0 .63.017a4.525 4.525 0 01.79.109 3.5 3.5 0 01.823.3 2.4 2.4 0 01.739.6 2.989 2.989 0 01.529.974 4.493 4.493 0 01.2 1.445 4.076 4.076 0 01-.252 1.487 3.01 3.01 0 01-.714 1.092 3.021 3.021 0 01-1.1.672 4.138 4.138 0 01-1.394.227H34.76v5.074h-1.478zm1.478 5.713h1.764a1.933 1.933 0 001.394-.571 2.361 2.361 0 00.588-1.764 2.4 2.4 0 00-.487-1.579 1.961 1.961 0 00-1.6-.588H34.76zm7.56-5.712h6.2v1.31h-4.721v3.763h4.452v1.31h-4.452v4.3h4.923v1.31h-6.406zm10.366 10.789h1.546a2.385 2.385 0 001.52-.445 2.84 2.84 0 00.857-1.132 5.2 5.2 0 00.378-1.537q.084-.848.084-1.655 0-.874-.067-1.73a5.118 5.118 0 00-.344-1.537 2.569 2.569 0 00-.844-1.112 2.581 2.581 0 00-1.579-.428h-1.551zm-1.478-10.786h3.208a4.518 4.518 0 012.226.47 3.183 3.183 0 011.274 1.286 5.4 5.4 0 01.571 1.907 19.145 19.145 0 01.134 2.335 14.348 14.348 0 01-.168 2.218 5.925 5.925 0 01-.622 1.915 3.656 3.656 0 01-1.243 1.352 3.639 3.639 0 01-2.016.512h-3.36zm12.5 0h1.982l3.226 12H67.37l-.854-3.297h-3.83l-.89 3.293h-1.55zm-.722 7.493h3.226l-1.529-5.8h-.034zm7.73-7.493h1.478v10.685h4.872v1.31h-6.35zm20.48 12h-1.48v-5.779h-4.118v5.779h-1.482v-12h1.478v4.909h4.122v-4.906h1.478zm5.259-12h1.982l3.226 12h-1.547l-.857-3.293h-3.832l-.89 3.293H92.99zm-.722 7.493h3.226l-1.529-5.8h-.034zm7.728-7.493h1.915l3.961 10.009h.034V75.706h1.478v12h-2.033l-3.847-9.711h-.034v9.711h-1.478zm11.924 10.786h1.546a2.385 2.385 0 001.52-.445 2.84 2.84 0 00.857-1.134 5.2 5.2 0 00.378-1.537q.084-.848.084-1.655 0-.874-.067-1.73a5.118 5.118 0 00-.344-1.537 2.569 2.569 0 00-.848-1.109 2.581 2.581 0 00-1.579-.428h-1.546zm-1.478-10.786h3.209a4.518 4.518 0 012.226.47 3.183 3.183 0 011.268 1.285 5.4 5.4 0 01.571 1.907 19.158 19.158 0 01.134 2.335 14.345 14.345 0 01-.168 2.218 5.925 5.925 0 01-.622 1.915 3.656 3.656 0 01-1.243 1.352 3.639 3.639 0 01-2.016.512h-3.36zm20.228 3.109a3.8 3.8 0 00-.092-.865 1.693 1.693 0 00-.311-.672 1.485 1.485 0 00-.58-.437 2.178 2.178 0 00-.882-.16 2.036 2.036 0 00-1.462.5 1.913 1.913 0 00-.521 1.453 1.835 1.835 0 00.42 1.294 3.026 3.026 0 001.05.722 11.7 11.7 0 001.361.479 6.38 6.38 0 011.361.563 3.061 3.061 0 011.05.974 3.029 3.029 0 01.42 1.714 3.855 3.855 0 01-.344 1.73 3.025 3.025 0 01-.882 1.092 3.352 3.352 0 01-1.2.571 5.293 5.293 0 01-1.3.168 4.925 4.925 0 01-1.756-.269 2.605 2.605 0 01-1.109-.773 3.056 3.056 0 01-.588-1.252 7.457 7.457 0 01-.176-1.705h1.478a9.87 9.87 0 00.05 1 2.372 2.372 0 00.269.9 1.6 1.6 0 00.672.647 2.693 2.693 0 001.26.244 2.239 2.239 0 00.823-.151 1.91 1.91 0 00.664-.428 2.014 2.014 0 00.437-.664 2.271 2.271 0 00.16-.874 1.992 1.992 0 00-.244-1.042 2.24 2.24 0 00-.638-.68 3.618 3.618 0 00-.907-.454l-1.042-.361q-.529-.185-1.042-.412a3.328 3.328 0 01-.907-.588 2.683 2.683 0 01-.638-.916 3.429 3.429 0 01-.244-1.378 4.892 4.892 0 01.118-.983 2.822 2.822 0 01.5-1.084 3.017 3.017 0 011.067-.882 3.956 3.956 0 011.831-.361 3.349 3.349 0 012.528.84 3.621 3.621 0 01.832 2.5zm6.619-3.108h1.982l3.226 12h-1.546l-.857-3.293h-3.831l-.89 3.293h-1.546zm-.722 7.493h3.226l-1.529-5.8h-.034zm7.728-7.493h1.915l3.965 10.008h.034V75.706h1.478v12h-2.036l-3.847-9.711h-.034v9.711h-1.478zm10.3 0h1.478v12h-1.478zm8.031 12h-1.478V77.015h-3.007v-1.31h7.51v1.31h-3.024zm5.091-12h1.478v12h-1.478zm3.8 10.752l5.393-9.442h-5.091v-1.31h6.632v1.361l-5.393 9.324h5.46v1.31h-7.006zm9.324-10.752h6.2v1.31h-4.721v3.763h4.452v1.31h-4.452v4.3h4.923v1.31h-6.4zm8.736 0h3.874a3.117 3.117 0 012.251.79 2.928 2.928 0 01.823 2.218 5.22 5.22 0 01-.092.974 3.163 3.163 0 01-.311.9 2.546 2.546 0 01-.571.722 1.942 1.942 0 01-.874.428v.034a1.667 1.667 0 011.218.655 2.454 2.454 0 01.479 1.344l.1 2.05a5.755 5.755 0 00.076.823 3.438 3.438 0 00.134.529.948.948 0 00.185.328 1.193 1.193 0 00.244.2h-1.781a.767.767 0 01-.168-.294 3.38 3.38 0 01-.118-.445 5.1 5.1 0 01-.076-.512q-.025-.26-.042-.479l-.1-1.865a2.632 2.632 0 00-.227-.966 1.393 1.393 0 00-.428-.521 1.249 1.249 0 00-.546-.218 4.1 4.1 0 00-.58-.042h-2v5.343h-1.478zm1.478 5.443h1.462q.319 0 .748-.034a1.948 1.948 0 00.815-.252 1.717 1.717 0 00.647-.689 2.817 2.817 0 00.26-1.344 1.8 1.8 0 00-.563-1.4 2.3 2.3 0 00-1.6-.512h-1.773z" data-name="Path 3"/><path d="M336.66 17.908v-2.54h1.64a4.451 4.451 0 01.63.046 1.763 1.763 0 01.566.173 1.052 1.052 0 01.4.365 1.155 1.155 0 01.155.639 1.343 1.343 0 01-.173.74 1.046 1.046 0 01-.466.393 2.022 2.022 0 01-.667.155q-.374.027-.794.027zm-1.242-3.543v7.98h1.242v-3.437h1.315l2.173 3.433h1.333l-2.281-3.522a2.707 2.707 0 001.5-.593 1.941 1.941 0 00.6-1.58 2.1 2.1 0 00-.685-1.717 3.27 3.27 0 00-2.109-.566zm-2.977 3.963a6.021 6.021 0 01.429-2.283 5.611 5.611 0 011.188-1.837 5.57 5.57 0 011.79-1.224 5.562 5.562 0 012.237-.447 5.452 5.452 0 012.21.447 5.6 5.6 0 011.78 1.224 5.611 5.611 0 011.187 1.835 6.021 6.021 0 01.429 2.283 6.189 6.189 0 01-.429 2.328 5.693 5.693 0 01-1.187 1.854 5.526 5.526 0 01-1.78 1.233 5.452 5.452 0 01-2.21.447 5.562 5.562 0 01-2.237-.447 5.5 5.5 0 01-1.79-1.233 5.693 5.693 0 01-1.187-1.854 6.189 6.189 0 01-.429-2.328zm-1.242 0a6.73 6.73 0 00.548 2.73 6.869 6.869 0 001.488 2.173 6.737 6.737 0 002.191 1.434 6.954 6.954 0 002.657.511 6.886 6.886 0 002.648-.511 6.658 6.658 0 002.175-1.436 6.945 6.945 0 001.479-2.173 6.73 6.73 0 00.548-2.73 6.576 6.576 0 00-.548-2.684 6.864 6.864 0 00-1.479-2.155 6.857 6.857 0 00-2.173-1.434 6.78 6.78 0 00-2.648-.52 6.847 6.847 0 00-2.657.52 6.939 6.939 0 00-2.191 1.434 6.789 6.789 0 00-1.488 2.155 6.576 6.576 0 00-.549 2.684z" data-name="Path 4"/></svg>