<svg xmlns="http://www.w3.org/2000/svg" width="330.932" height="55.094"><defs><clipPath id="clip-path"><path id="Rectangle_7684" d="M0 0h180.744v30.82H0z" data-name="Rectangle 7684"/></clipPath><clipPath id="clip-path-2"><path id="Rectangle_7685" d="M0 0h180.743v30.82H0z" data-name="Rectangle 7685"/></clipPath><style>.cls-2{clip-path:url(#clip-path)}</style></defs><g id="logo-sidebar-astreea-dark" transform="translate(-255 -45.5)"><g id="logo-astrea" transform="translate(470.209 55.128)"><path id="Path_2" d="M239.086-65.046h9.981a5.95 5.95 0 00-.437-1.9 5.065 5.065 0 00-1.008-1.563 4.617 4.617 0 00-1.529-1.059 4.974 4.974 0 00-2-.386 4.887 4.887 0 00-1.966.386 4.946 4.946 0 00-1.546 1.042 4.9 4.9 0 00-1.042 1.563 5.843 5.843 0 00-.453 1.917zm-2.756 4.839h2.823a4.062 4.062 0 001.529 2.554 4.944 4.944 0 002.974.84 5.917 5.917 0 002.453-.47 4.808 4.808 0 001.714-1.26 4.91 4.91 0 00.975-1.815 6.9 6.9 0 00.269-2.168h-13.005a13.829 13.829 0 01.286-3.327 9.63 9.63 0 011.277-3.226 7.61 7.61 0 012.453-2.436 7.128 7.128 0 013.848-.958 7.9 7.9 0 013.276.672 7.7 7.7 0 012.588 1.882 8.673 8.673 0 011.7 2.856 10.454 10.454 0 01.6 3.629 13.926 13.926 0 01-.588 3.663 8 8 0 01-1.563 2.89A7.123 7.123 0 01247.37-55a8.924 8.924 0 01-3.612.672 7.886 7.886 0 01-4.906-1.479 6.943 6.943 0 01-2.521-4.4z" data-name="Path 2" transform="translate(-178.547 77.278)"/><path id="Path_1" d="M21.264-69.549a4.04 4.04 0 01-2.05.437 2.458 2.458 0 01-1.764-.622 2.7 2.7 0 01-.655-2.033 6.834 6.834 0 01-2.739 2.033 9.053 9.053 0 01-3.377.622 9.048 9.048 0 01-2.235-.269 5.2 5.2 0 01-1.831-.84 4.032 4.032 0 01-1.227-1.5 5.031 5.031 0 01-.454-2.235 5.1 5.1 0 01.5-2.42A4.4 4.4 0 016.763-77.9a6.082 6.082 0 011.882-.891q1.059-.3 2.167-.5 1.176-.235 2.235-.353a12.446 12.446 0 001.865-.336 3.107 3.107 0 001.277-.638 1.559 1.559 0 00.47-1.227 2.851 2.851 0 00-.353-1.512 2.42 2.42 0 00-.907-.874 3.689 3.689 0 00-1.243-.4 9.389 9.389 0 00-1.361-.1 6.04 6.04 0 00-3.024.689 2.924 2.924 0 00-1.311 2.6H5.6a6.17 6.17 0 01.672-2.722 5.1 5.1 0 011.613-1.8 6.768 6.768 0 012.3-.991 12.157 12.157 0 012.772-.3 16.26 16.26 0 012.336.168 6.1 6.1 0 012.1.689 4.027 4.027 0 011.512 1.462 4.678 4.678 0 01.571 2.453v8.939a6.685 6.685 0 00.118 1.479q.118.47.79.47a2.829 2.829 0 00.874-.168zm-4.637-8.905a3.555 3.555 0 01-1.411.588q-.874.185-1.831.3t-1.932.269a7.105 7.105 0 00-1.747.487 3.179 3.179 0 00-1.26.958 2.682 2.682 0 00-.487 1.7 2.322 2.322 0 00.286 1.193 2.381 2.381 0 00.739.79 3.1 3.1 0 001.059.437 5.873 5.873 0 001.277.134 6.767 6.767 0 002.42-.386 5.09 5.09 0 001.647-.975 3.844 3.844 0 00.941-1.277 3.23 3.23 0 00.3-1.294zm9.208 3.495h-2.857a6.286 6.286 0 00.672 2.739 5.055 5.055 0 001.613 1.815 6.759 6.759 0 002.319.991 12.221 12.221 0 002.756.3 14.116 14.116 0 002.638-.252 7.164 7.164 0 002.386-.891 5.122 5.122 0 001.714-1.68 4.839 4.839 0 00.655-2.621 4.1 4.1 0 00-.487-2.083 4.35 4.35 0 00-1.277-1.395 6.849 6.849 0 00-1.815-.891 21.457 21.457 0 00-2.1-.571q-1.008-.235-2.016-.454a11.634 11.634 0 01-1.815-.538 4.158 4.158 0 01-1.327-.807 1.608 1.608 0 01-.521-1.227 1.7 1.7 0 01.336-1.092 2.4 2.4 0 01.874-.672 4.358 4.358 0 011.193-.353 8.5 8.5 0 011.294-.1 6.486 6.486 0 011.395.151 4.275 4.275 0 011.26.487 2.86 2.86 0 01.941.891 2.891 2.891 0 01.437 1.395h2.856a6.381 6.381 0 00-.672-2.638 4.522 4.522 0 00-1.529-1.68 6.3 6.3 0 00-2.2-.874 13.717 13.717 0 00-2.722-.252 9.594 9.594 0 00-2.3.286 6.943 6.943 0 00-2.083.874 4.809 4.809 0 00-1.512 1.529 4.162 4.162 0 00-.588 2.252 3.8 3.8 0 00.84 2.621 5.67 5.67 0 002.1 1.462 14.212 14.212 0 002.739.807q1.479.286 2.739.638a7.15 7.15 0 012.1.924 1.9 1.9 0 01.84 1.68 2.1 2.1 0 01-.4 1.327 2.555 2.555 0 01-1.025.79 5.174 5.174 0 01-1.361.37 10.457 10.457 0 01-1.411.1 8.466 8.466 0 01-1.7-.168 4.762 4.762 0 01-1.479-.554 3.04 3.04 0 01-1.059-1.042 3.215 3.215 0 01-.442-1.594zm19.188-11.9v-5.209h-2.857v5.209h-2.957v2.52h2.957v11.056a6.6 6.6 0 00.234 1.953 2.369 2.369 0 00.723 1.143 2.789 2.789 0 001.277.554 10.256 10.256 0 001.9.151h2.184V-72h-1.311a9.524 9.524 0 01-1.092-.05 1.411 1.411 0 01-.655-.218.83.83 0 01-.319-.47 3.117 3.117 0 01-.084-.807v-10.79h3.461v-2.52zm6.687 0v17.374h2.856v-7.729a11.879 11.879 0 01.336-2.974 5.7 5.7 0 011.075-2.2 4.609 4.609 0 011.949-1.378 8.079 8.079 0 012.924-.47v-3.024a6.42 6.42 0 00-3.831.941 7.738 7.738 0 00-2.554 3.125H54.4v-3.663zm41.132 7.023h-9.981a5.949 5.949 0 01.437-1.9 5.064 5.064 0 011.008-1.563 4.618 4.618 0 011.529-1.059 4.974 4.974 0 012-.386 4.887 4.887 0 011.966.386 4.946 4.946 0 011.546 1.042 4.9 4.9 0 011.042 1.563 5.844 5.844 0 01.453 1.921zm2.758 4.843h-2.825a4.062 4.062 0 01-1.529 2.554 4.944 4.944 0 01-2.974.84 5.917 5.917 0 01-2.453-.47 4.809 4.809 0 01-1.714-1.26 4.909 4.909 0 01-.975-1.815 6.9 6.9 0 01-.269-2.168h13.005a13.833 13.833 0 00-.286-3.327 9.631 9.631 0 00-1.28-3.225 7.609 7.609 0 00-2.45-2.436 7.128 7.128 0 00-3.85-.959 7.9 7.9 0 00-3.276.672 7.7 7.7 0 00-2.585 1.887 8.674 8.674 0 00-1.7 2.856 10.455 10.455 0 00-.6 3.629 13.926 13.926 0 00.588 3.663 7.994 7.994 0 001.563 2.89 7.122 7.122 0 002.571 1.882 8.924 8.924 0 003.612.672 7.886 7.886 0 004.906-1.479 6.943 6.943 0 002.521-4.406zm18.785 5.444a4.04 4.04 0 01-2.05.437 2.458 2.458 0 01-1.764-.622 2.7 2.7 0 01-.655-2.033 6.834 6.834 0 01-2.739 2.033 9.053 9.053 0 01-3.377.622 9.048 9.048 0 01-2.235-.269 5.2 5.2 0 01-1.831-.84 4.032 4.032 0 01-1.227-1.5 5.031 5.031 0 01-.454-2.235 5.1 5.1 0 01.5-2.42 4.4 4.4 0 011.329-1.524 6.083 6.083 0 011.882-.891q1.059-.3 2.168-.5 1.176-.235 2.235-.353a12.445 12.445 0 001.865-.336 3.107 3.107 0 001.277-.638 1.559 1.559 0 00.471-1.227 2.851 2.851 0 00-.353-1.512 2.42 2.42 0 00-.907-.874 3.689 3.689 0 00-1.243-.4 9.389 9.389 0 00-1.361-.1 6.04 6.04 0 00-3.024.689 2.924 2.924 0 00-1.311 2.6h-2.858a6.17 6.17 0 01.672-2.722 5.1 5.1 0 011.613-1.8 6.768 6.768 0 012.3-.991 12.157 12.157 0 012.772-.3 16.26 16.26 0 012.336.168 6.1 6.1 0 012.1.689 4.027 4.027 0 011.512 1.462 4.678 4.678 0 01.571 2.453v8.939a6.684 6.684 0 00.118 1.479q.118.47.79.47a2.829 2.829 0 00.874-.168zm-4.637-8.905a3.555 3.555 0 01-1.411.588q-.874.185-1.831.3t-1.932.269a7.105 7.105 0 00-1.747.487 3.178 3.178 0 00-1.26.958 2.682 2.682 0 00-.487 1.7 2.323 2.323 0 00.286 1.193 2.381 2.381 0 00.739.79 3.1 3.1 0 001.059.437 5.873 5.873 0 001.277.134 6.766 6.766 0 002.419-.386 5.089 5.089 0 001.647-.975 3.845 3.845 0 00.941-1.277 3.23 3.23 0 00.3-1.294z" data-name="Path 1" transform="translate(-4.119 92.064)"/><path id="Path_4" d="M-17.566-16.135v-.852h.552a1.5 1.5 0 01.212.015.592.592 0 01.19.058.353.353 0 01.135.123.388.388 0 01.052.215.451.451 0 01-.058.248.351.351 0 01-.156.132.679.679 0 01-.224.052q-.126.009-.267.009zm-.417-1.19v2.68h.417V-15.8h.442l.73 1.153h.448l-.767-1.184a.909.909 0 00.5-.2.652.652 0 00.2-.53.7.7 0 00-.23-.576 1.1 1.1 0 00-.708-.19zm-1 1.331a2.022 2.022 0 01.144-.767 1.884 1.884 0 01.4-.616 1.87 1.87 0 01.6-.411 1.868 1.868 0 01.751-.15 1.831 1.831 0 01.742.15 1.879 1.879 0 01.6.411 1.884 1.884 0 01.4.616 2.022 2.022 0 01.144.767 2.078 2.078 0 01-.144.782 1.912 1.912 0 01-.4.622 1.856 1.856 0 01-.6.414 1.831 1.831 0 01-.742.15 1.868 1.868 0 01-.751-.15 1.847 1.847 0 01-.6-.414 1.912 1.912 0 01-.4-.622 2.078 2.078 0 01-.144-.782zm-.417 0a2.26 2.26 0 00.184.917 2.307 2.307 0 00.5.73 2.262 2.262 0 00.736.481 2.335 2.335 0 00.892.172 2.312 2.312 0 00.889-.172 2.236 2.236 0 00.73-.481 2.332 2.332 0 00.5-.73 2.26 2.26 0 00.184-.917 2.208 2.208 0 00-.184-.9 2.3 2.3 0 00-.5-.724 2.3 2.3 0 00-.73-.481 2.277 2.277 0 00-.889-.175 2.3 2.3 0 00-.892.175 2.33 2.33 0 00-.736.481 2.28 2.28 0 00-.5.724 2.208 2.208 0 00-.184.9z" data-name="Path 4" transform="translate(130.512 22.148)"/><path id="Path_20" d="M2.69-4.365h1.157l2.622 6.883H5.225L4.579.763h-2.67l-.636 1.755H.068zM4.261-.21L3.24-3.044 2.227-.21zm3.856-4.155v4.126a2.444 2.444 0 00.352 1.451 1.383 1.383 0 001.19.477 1.344 1.344 0 001.171-.477 2.5 2.5 0 00.342-1.451v-4.126h1.166v4.126a4.152 4.152 0 01-.193 1.354 2.318 2.318 0 01-.549.906 2.118 2.118 0 01-.848.511 3.559 3.559 0 01-1.1.159 2.662 2.662 0 01-2.005-.709 3.15 3.15 0 01-.683-2.25v-4.1zm7.259 1.012H13.2v-1.012h5.514v1.012h-2.172v5.87h-1.166zm4.3-1.012h1.166v2.786h3.094v-2.786H25.1v6.883h-1.164V-.5h-3.095v3.018h-1.166zm9.938 7.056a3.457 3.457 0 01-1.335-.246 2.834 2.834 0 01-1.017-.709A3.138 3.138 0 0126.611.6a4.727 4.727 0 01-.227-1.518 4.68 4.68 0 01.231-1.523 3.238 3.238 0 01.655-1.142 2.8 2.8 0 011.022-.713 3.44 3.44 0 011.321-.246 3.466 3.466 0 011.33.246 2.735 2.735 0 011.012.709 3.217 3.217 0 01.645 1.136 4.727 4.727 0 01.227 1.518A4.855 4.855 0 0132.6.595a3.21 3.21 0 01-.636 1.137 2.718 2.718 0 01-1.007.713 3.483 3.483 0 01-1.344.246zm-.01-1a1.745 1.745 0 001.5-.7 3.182 3.182 0 00.511-1.913 4.184 4.184 0 00-.13-1.089 2.415 2.415 0 00-.381-.819 1.694 1.694 0 00-.627-.521 1.981 1.981 0 00-.877-.183 1.981 1.981 0 00-.877.183 1.736 1.736 0 00-.631.521 2.3 2.3 0 00-.381.819 4.337 4.337 0 00-.125 1.089A3.205 3.205 0 0028.1.99a1.742 1.742 0 001.5.699zm6.94-2.873a2.218 2.218 0 00.655-.082.987.987 0 00.41-.231.838.838 0 00.212-.361 1.664 1.664 0 00.063-.472 1.268 1.268 0 00-.072-.439.781.781 0 00-.241-.337 1.191 1.191 0 00-.448-.217 2.653 2.653 0 00-.694-.077h-1.177v2.217zm-.087-3.181a3.833 3.833 0 011.287.183 2.145 2.145 0 01.8.477 1.626 1.626 0 01.41.651 2.272 2.272 0 01.116.7 2.2 2.2 0 01-.27 1.13 1.885 1.885 0 01-.853.733l1.427 3.008h-1.268L36.872-.22q-.087.01-.183.014t-.2 0h-1.237v2.724h-1.147v-6.883zm3.894 0h1.166v6.881h-1.165zm2.2 6.015l3.7-5.013h-3.634v-1h5.013v.877l-3.692 4.99h3.827l-.135 1.012h-5.08zm6.169-6.015h4.58v1h-3.415v1.832H53.1v1.012h-3.22v2.034h3.6l-.135 1h-4.626zm8.213 5.89a2.764 2.764 0 001.036-.174 1.761 1.761 0 00.7-.5 2.047 2.047 0 00.4-.781A3.836 3.836 0 0059.2-.953a2.9 2.9 0 00-.482-1.778 1.85 1.85 0 00-1.581-.641H55.8v4.9zm.193-5.89a4.224 4.224 0 011.369.207 2.64 2.64 0 011.031.631 2.8 2.8 0 01.651 1.065 4.5 4.5 0 01.227 1.5 4.333 4.333 0 01-.243 1.506 2.884 2.884 0 01-.694 1.089 2.911 2.911 0 01-1.1.66 4.543 4.543 0 01-1.47.222h-2.26v-6.882zm9.2 3.181a2.218 2.218 0 00.655-.082.987.987 0 00.41-.231.837.837 0 00.212-.361 1.664 1.664 0 00.063-.472 1.269 1.269 0 00-.072-.439.781.781 0 00-.241-.337 1.191 1.191 0 00-.448-.217A2.653 2.653 0 0066.2-3.4h-1.171v2.217zm-.087-3.181a3.833 3.833 0 011.287.183 2.145 2.145 0 01.8.477 1.626 1.626 0 01.41.651 2.271 2.271 0 01.116.7 2.2 2.2 0 01-.265 1.128 1.885 1.885 0 01-.853.733l1.427 3.008h-1.279L66.648-.22q-.087.01-.183.014t-.2 0h-1.236v2.724h-1.147v-6.883zm3.894 0h4.579v1h-3.417v1.832h3.22v1.012h-3.22v2.034h3.6l-.135 1h-4.632zM76.712.416a1.356 1.356 0 00.488.984 2.012 2.012 0 001.219.308 2.2 2.2 0 00.665-.087 1.2 1.2 0 00.434-.231.792.792 0 00.231-.342 1.289 1.289 0 00.067-.419 1.108 1.108 0 00-.048-.323.75.75 0 00-.174-.294 1.1 1.1 0 00-.337-.236 2.124 2.124 0 00-.54-.159l-.877-.165a6.026 6.026 0 01-.925-.241 2.128 2.128 0 01-.68-.381 1.5 1.5 0 01-.415-.578 2.208 2.208 0 01-.14-.834 1.78 1.78 0 01.2-.858 1.774 1.774 0 01.545-.612 2.448 2.448 0 01.824-.366 4.225 4.225 0 011.036-.12 3.753 3.753 0 011.2.164 2.257 2.257 0 01.781.429 1.778 1.778 0 01.453.612 2.833 2.833 0 01.212.723l-1.1.174a1.537 1.537 0 00-.468-.858 1.627 1.627 0 00-1.056-.28 2.763 2.763 0 00-.689.072 1.235 1.235 0 00-.443.2.754.754 0 00-.241.3.884.884 0 00-.072.352.864.864 0 00.246.675 1.875 1.875 0 00.863.347l.954.183a3.116 3.116 0 011.6.689 1.846 1.846 0 01.511 1.4 2.022 2.022 0 01-.159.8 1.72 1.72 0 01-.487.646 2.425 2.425 0 01-.815.434 3.651 3.651 0 01-1.133.159 3.429 3.429 0 01-2.072-.554 2.189 2.189 0 01-.834-1.713zm5.495-4.781h4.579v1h-3.413v1.832h3.22v1.014h-3.22v2.034h3.6l-.135 1h-4.632zm7.085 0v5.87H92.7l-.145 1.012h-4.43v-6.882zm5.572 0v5.87h3.412l-.145 1.012H93.7v-6.882zm4.405 0h4.579v1h-3.412v1.832h3.22v1.014h-3.22v2.034h3.6l-.135 1h-4.633zm8.357 3.181a2.218 2.218 0 00.655-.082.987.987 0 00.41-.231.838.838 0 00.212-.361 1.664 1.664 0 00.063-.472 1.269 1.269 0 00-.072-.439.781.781 0 00-.241-.337 1.191 1.191 0 00-.448-.217 2.653 2.653 0 00-.694-.077h-1.176v2.217zm-.087-3.181a3.833 3.833 0 011.287.183 2.145 2.145 0 01.8.477 1.626 1.626 0 01.41.651 2.272 2.272 0 01.116.7 2.2 2.2 0 01-.265 1.128 1.885 1.885 0 01-.853.733l1.427 3.008h-1.272L107.954-.22q-.087.01-.183.014t-.2 0h-1.234v2.724h-1.147v-6.883z" data-name="Path 20" transform="translate(-.068 33.242)"/></g><path id="Line_2" fill="none" stroke="#cecece" d="M0 55.093V0" data-name="Line 2" transform="translate(452.992 45.5)"/><g id="logo-sidebar-light" transform="translate(255 57.372)"><g id="Group_67" data-name="Group 67"><g id="Group_66" class="cls-2" data-name="Group 66"><path id="Path_45" d="M61.4 54.917l-4.662-1.135c-2.29-.552-3.53-1.139-3.53-2.65 0-1.751 1.736-2.926 4.32-2.926 3.017 0 4.837 1.389 5.263 4.016l.042.263 7.243-.492-.06-.322c-1.076-5.79-5.541-9.11-12.251-9.11-7.252 0-11.937 3.523-11.937 8.976 0 6.3 5.021 7.6 8.688 8.562l4.443 1.144c2.943.749 4.328 1.315 4.328 3.259 0 1.91-1.891 3.145-4.816 3.145-2.12 0-5.738-.638-6.159-4.9l-.029-.29-7.391.743.034.293c.707 6.1 5.865 9.889 13.464 9.889 7.708 0 12.5-3.5 12.5-9.129 0-6.938-5.036-8.21-9.484-9.334" data-name="Path 45" transform="translate(-44.894 -42.56)"/><path id="Path_46" fill="#e23e35" d="M70.984 72.75h7.259l10.751-29.523h-7.3z" data-name="Path 46" transform="translate(-45.66 -42.58)"/><path id="Path_47" d="M120 72.75h22.183v-6.1H127.5V60.5h8.841v-5.743H127.5v-5.591h14.689v-5.939H120z" data-name="Path 47" transform="translate(-47.1 -42.58)"/></g></g><g id="Group_69" data-name="Group 69"><g id="Group_68" clip-path="url(#clip-path-2)" data-name="Group 68"><path id="Path_48" d="M165.8 57.064a6.146 6.146 0 003.467-5.75c0-4.988-3.663-8.086-9.562-8.086h-14.86v29.523H160.3c6.211 0 9.919-3.312 9.919-8.859a7.177 7.177 0 00-4.418-6.827m-13.485-2.009v-6.064h5.958c2.289 0 3.549 1.077 3.549 3.032s-1.26 3.031-3.549 3.031zm10.305 8.522c0 2.118-1.363 3.285-3.839 3.285h-6.466v-6.57h6.466c2.476 0 3.839 1.167 3.839 3.285" data-name="Path 48" transform="translate(-47.829 -42.58)"/><path id="Path_49" d="M223.556 61.709c3.734-1.427 5.784-4.542 5.784-8.807 0-6.058-4.119-9.674-11.019-9.674H203.55v29.523h7.474V62.577h4.753l5.823 10.174h8.7zm-1.814-8.809c0 2.409-1.61 3.736-4.532 3.736h-6.186v-7.471h6.186c2.922 0 4.532 1.328 4.532 3.737" data-name="Path 49" transform="translate(-49.553 -42.58)"/></g></g><g id="Group_71" data-name="Group 71"><g id="Group_70" class="cls-2" data-name="Group 70"><path id="Path_50" d="M199.131 66.32c-.536 0-.946-.1-.946-1.336V52.432c0-5.981-4.252-9.275-11.975-9.275-6.585 0-11.41 3.287-12.593 8.577l-.068.3 7.355 1.109.071-.244a5.075 5.075 0 015.095-3.91c1.912 0 4.191.541 4.191 3.118 0 1.357-.974 2.168-6.3 2.838-8.073.978-11.366 3.684-11.366 9.339 0 5.021 3.963 8.528 9.637 8.528 3.582 0 6.832-1.3 8.574-3.414.888 2.155 2.776 3.12 6.067 3.12a13.572 13.572 0 003.439-.369l.2-.064V66l-.393.146a3.313 3.313 0 01-.992.174m-8.87-7.55v2.3a5.946 5.946 0 01-6.131 6.1c-2.172 0-3.47-1.209-3.47-3.235 0-2.675 2.329-3.607 4.278-3.917a19.212 19.212 0 005.323-1.251" data-name="Path 50" transform="translate(-48.644 -42.578)"/><path id="Path_51" d="M102.119 43.227h-11.3l4.549 6.11h-5.262V72.75h12.013c9.734 0 15.1-5.242 15.1-14.761s-5.361-14.761-15.1-14.761m-1.068 23.585h-3.472V49.165h3.472c5.924 0 8.566 2.722 8.566 8.823s-2.642 8.824-8.566 8.824" data-name="Path 51" transform="translate(-46.222 -42.58)"/></g></g></g></g></svg>