<svg xmlns="http://www.w3.org/2000/svg" width="186.212" height="31.752"><defs><clipPath id="clip-path"><path id="Rectangle_7684" d="M0 0h186.212v31.752H0z" class="cls-1" data-name="Rectangle 7684" transform="translate(44.894 42.56)"/></clipPath><clipPath id="clip-path-2"><path id="Rectangle_7685" d="M0 0h186.211v31.752H0z" class="cls-1" data-name="Rectangle 7685" transform="translate(44.894 42.56)"/></clipPath><style>.cls-1{fill:none}.cls-2{clip-path:url(#clip-path)}.cls-3{fill:#050605}</style></defs><g id="Group_125" data-name="Group 125" transform="translate(-44.894 -42.56)"><g id="Group_67" data-name="Group 67"><g id="Group_66" class="cls-2" data-name="Group 66"><path id="Path_45" d="M61.9 55.291l-4.8-1.169c-2.359-.569-3.637-1.173-3.637-2.73 0-1.8 1.788-3.015 4.451-3.015 3.108 0 4.983 1.431 5.422 4.138l.043.271 7.462-.507-.062-.332c-1.109-5.965-5.709-9.386-12.622-9.386-7.471 0-12.3 3.63-12.3 9.248 0 6.487 5.173 7.835 8.951 8.821l4.577 1.179c3.032.772 4.459 1.355 4.459 3.358 0 1.968-1.948 3.24-4.962 3.24-2.184 0-5.912-.657-6.345-5.052l-.03-.3-7.615.766.035.3c.728 6.285 6.042 10.188 13.871 10.188 7.941 0 12.874-3.6 12.874-9.4 0-7.148-5.188-8.458-9.771-9.616" class="cls-3" data-name="Path 45"/><path id="Path_46" fill="#db2627" d="M70.984 73.644h7.479l11.076-30.416h-7.522z" data-name="Path 46"/><path id="Path_47" d="M120 73.644h22.854v-6.288h-15.132v-6.328h9.109v-5.922h-9.109v-5.76h15.133v-6.118H120z" class="cls-3" data-name="Path 47"/></g></g><g id="Group_69" data-name="Group 69"><g id="Group_68" clip-path="url(#clip-path-2)" data-name="Group 68"><path id="Path_48" d="M166.437 57.483a6.332 6.332 0 003.572-5.924c0-5.139-3.774-8.331-9.851-8.331h-15.313v30.416h15.925c6.4 0 10.219-3.412 10.219-9.127a7.4 7.4 0 00-4.552-7.034m-13.893-2.07v-6.247h6.138c2.358 0 3.656 1.11 3.656 3.124s-1.3 3.123-3.656 3.123zm10.617 8.78c0 2.182-1.4 3.384-3.955 3.384h-6.662v-6.768h6.662c2.551 0 3.955 1.2 3.955 3.384" class="cls-3" data-name="Path 48"/><path id="Path_49" d="M224.161 62.268c3.847-1.47 5.959-4.679 5.959-9.073 0-6.241-4.244-9.967-11.352-9.967H203.55v30.416h7.7V63.162h4.9l6 10.482h8.96zm-1.869-9.073c0 2.482-1.659 3.849-4.669 3.849h-6.373v-7.7h6.373c3.01 0 4.669 1.368 4.669 3.85" class="cls-3" data-name="Path 49"/></g></g><g id="Group_71" data-name="Group 71"><g id="Group_70" class="cls-2" data-name="Group 70"><path id="Path_50" d="M199.934 67.021c-.552 0-.975-.1-.975-1.376V52.713c0-6.162-4.381-9.556-12.337-9.556-6.784 0-11.755 3.386-12.974 8.836l-.07.314 7.578 1.143.073-.251a5.229 5.229 0 015.249-4.028c1.97 0 4.318.557 4.318 3.212 0 1.4-1 2.234-6.491 2.924-8.317 1.008-11.71 3.8-11.71 9.622 0 5.173 4.083 8.786 9.929 8.786 3.69 0 7.039-1.341 8.833-3.517.915 2.22 2.86 3.214 6.251 3.214a13.983 13.983 0 003.543-.38l.21-.066v-6.274l-.4.15a3.414 3.414 0 01-1.022.179m-9.139-7.778v2.372a6.126 6.126 0 01-6.32 6.285c-2.238 0-3.575-1.246-3.575-3.333 0-2.756 2.4-3.716 4.407-4.036a19.793 19.793 0 005.484-1.289" class="cls-3" data-name="Path 50"/><path id="Path_51" fill="#040505" d="M102.482 43.227H90.839l4.687 6.295h-5.42v24.121h12.376c10.029 0 15.552-5.4 15.552-15.208s-5.523-15.208-15.552-15.208m-1.1 24.3h-3.577V49.345h3.577c6.1 0 8.825 2.8 8.825 9.09s-2.722 9.091-8.825 9.091" data-name="Path 51"/></g></g></g></svg>