<svg xmlns="http://www.w3.org/2000/svg" width="157.618" height="477.6"><defs><style>.cls-3{fill:none;stroke:#aaa;stroke-dasharray:5}.cls-4{fill:#ef0000}</style></defs><g id="vector-astreea-mobile" transform="translate(-881.882 -7280.9)"><g id="Group_65" data-name="Group 65" transform="translate(-386.458 7007.9)"><g id="Group_48" data-name="Group 48" transform="translate(1268.34 617.552)"><path id="Path_28" d="M1325.583 876.074a5.423 5.423 0 01-3.551-1.408c-1.4-.914-50.136-32.756-52.1-34.066-1-.664-1.531-1.291-1.587-1.862a.868.868 0 01.1-.524v-16.6c0-1.857.562-2.249.871-2.323l42.034-30.692.394.54-42.189 30.8h-.107c.027 0-.336.209-.336 1.671v16.845l-.1.1s-.025.029 0 .151c.03.164.214.624 1.288 1.339 1.981 1.32 51.62 33.752 52.122 34.079l.053.044a4.822 4.822 0 003.106 1.239c1.972 0 25.129-1.322 25.375-1.336a10.142 10.142 0 003.792-1.908c1.328-1.328 42.373-37.885 44.119-39.44a3.871 3.871 0 00.557-2.424c0-1.93-2.645-14.559-3.953-16.521-.947-1.42-22.028-13.1-35.966-20.607l.317-.588c3.564 1.919 34.862 18.809 36.206 20.825 1.4 2.1 4.066 14.87 4.066 16.892 0 2.083-.688 2.831-.766 2.909-.443.394-42.792 38.113-44.105 39.427a10.533 10.533 0 01-4.165 2.092c-1.017.063-23.483 1.346-25.475 1.346z" data-name="Path 28" transform="translate(-1268.34 -788.596)"/></g><g id="Group_49" data-name="Group 49" transform="translate(1289.497 649.23)"><path id="Path_29" d="M1315.9 867.567a2.871 2.871 0 01-.545-.049.9.9 0 01-.713-.712l-.57-2.852-11-5.825-2.134 2.134a.548.548 0 01-.935-.387v-5.66L1322.938 836h1.625l.1.139c.033.046 3.429 4.6 14.488 6.549l.276.048v9.118l-.111.1c-.733.656-17.485 15.611-23.416 15.613zm-12.955-10.258l11.719 6.2.633 3.163a.237.237 0 00.185.188c4.842.926 21.737-13.942 23.277-15.309V843.3c-10.195-1.857-13.873-5.818-14.531-6.628h-1.056l-22.5 17.87v5.047z" data-name="Path 29" transform="translate(-1300 -836)"/></g><g id="Group_50" data-name="Group 50" transform="translate(1323.799 661.031)"><path id="Path_30" d="M1356.506 857.567l.142 5.86-4.254-.945 3.734-3.308z" data-name="Path 30" transform="translate(-1351.683 -854.956)"/><path id="Path_31" d="M1356.639 862.55l-5.309-1.181 4.144-3.672.949-4.038zm-3.887-1.55l3.2.711-.084-3.469z" data-name="Path 31" transform="translate(-1351.33 -853.66)"/></g><g id="Group_51" data-name="Group 51" transform="translate(1289.595 655.991)"><path id="Path_32" d="M1314.453 867.494l-10.966-6.183-3.341-3.341.473-.472 3.309 3.309 10.451 5.879 24.548-20.567.43.512z" data-name="Path 32" transform="translate(-1300.146 -846.117)"/></g><g id="Group_52" data-name="Group 52" transform="translate(1323.982 278.34)"><path id="Path_33" d="M1362.863 673.078a41.149 41.149 0 01-11.259-1.535l.205-.636c.226.073 22.714 7.081 34.477-9.777l6.681-380.138.668.012-6.684 380.34-.057.083c-6.566 9.483-16.408 11.651-24.031 11.651z" data-name="Path 33" transform="translate(-1351.604 -280.991)"/></g><g id="Group_53" data-name="Group 53" transform="translate(1306.872 278.675)"><path id="Rectangle_7683" d="M0 0h.668v370.922H0z" data-name="Rectangle 7683" transform="rotate(-.826 .694 .005)"/></g><g id="Group_54" data-name="Group 54" transform="translate(1306.872 273)"><path id="Path_34" d="M1355.587 284.36c-14.343 0-29.587-1.991-29.587-5.68s15.244-5.68 29.587-5.68 29.588 1.991 29.588 5.68-15.245 5.68-29.588 5.68zm0-10.692c-17.042 0-28.918 2.642-28.918 5.012s11.876 5.012 28.918 5.012 28.919-2.642 28.919-5.012-11.877-5.012-28.919-5.012z" data-name="Path 34" transform="translate(-1326 -273)"/></g><g id="Group_55" data-name="Group 55" transform="translate(1355.652 339.157)"><path id="Path_35" d="M1400.333 460.21h-.021a1.337 1.337 0 01-1.315-1.357l1.336-85.537a1.337 1.337 0 012.673.041l-1.336 85.537a1.337 1.337 0 01-1.337 1.316z" data-name="Path 35" transform="translate(-1398.996 -372)"/></g><g id="Group_56" data-name="Group 56" transform="translate(1303.102 286.699)"><path id="Path_36" fill="#fff" d="M1321 305.761h2.94s1.96-8.821 7.841-8.821h3.921V294h-3.921s-7.841 0-10.781 11.761z" data-name="Path 36" transform="translate(-1320.572 -293.666)"/><path id="Path_37" d="M1324 305.93h-3.637l.1-.415c1.546-6.183 4.464-9.119 6.639-10.493a9.11 9.11 0 014.467-1.522h4.254v3.609h-4.254c-5.549 0-7.5 8.474-7.515 8.559zm-2.777-.668h2.246c.386-1.517 2.537-8.821 8.1-8.821h3.586v-2.272h-3.586a8.633 8.633 0 00-4.146 1.442c-2.011 1.28-4.696 3.989-6.204 9.65z" data-name="Path 37" transform="translate(-1320.359 -293.5)"/></g><g id="Group_57" data-name="Group 57" transform="translate(1315.559 283.024)"><path id="Path_38" d="M1339 288l3.341.668v7.351s-.668 2-2 1.337-1.337-2.673-1.337-2.673h2.673v-2.673H1339z" data-name="Path 38" transform="translate(-1339 -288)"/></g><g id="Group_61" data-name="Group 61" transform="translate(1353.65 304.408)"><g id="Group_58" data-name="Group 58" transform="translate(0 10.024)"><path id="Path_39" d="M1396 345.024s0-3.341 1.337-4.678 6.014-3.341 6.014-5.346c0 0 1.337 3.341-1.336 5.346-3.115 2.338-3.342 1.337-6.015 4.678z" data-name="Path 39" transform="translate(-1396 -335)"/></g><g id="Group_59" data-name="Group 59"><path id="Path_40" d="M1396 334.033s0-4.678 1.871-6.549 8.42-4.678 8.42-7.484c0 0 1.871 4.678-1.871 7.484-4.364 3.274-4.678 1.872-8.42 6.549z" data-name="Path 40" transform="translate(-1396 -320)"/></g><g id="Group_60" data-name="Group 60" transform="translate(0 16.038)"><path id="Path_41" d="M1396 352.687s0-2.9 1.158-4.054 5.213-2.9 5.213-4.633c0 0 1.159 2.9-1.158 4.633-2.702 2.026-2.896 1.159-5.213 4.054z" data-name="Path 41" transform="translate(-1396 -344)"/></g></g><g id="Group_62" data-name="Group 62" transform="translate(1332.6 688.323)"><path id="Path_42" d="M1368.175 899.846c-2.026 0-3.675-1.2-3.675-2.673s1.649-2.673 3.675-2.673 3.676 1.2 3.676 2.673-1.651 2.673-3.676 2.673zm0-4.678c-1.658 0-3.007.9-3.007 2s1.349 2 3.007 2 3.007-.9 3.007-2-1.349-2-3.007-2z" data-name="Path 42" transform="translate(-1364.5 -894.5)"/></g><g id="Group_63" data-name="Group 63" transform="translate(1380.38 648.561)"><path id="Path_43" d="M1439.2 839.678c-1.763 0-3.2-1.049-3.2-2.339s1.435-2.339 3.2-2.339 3.2 1.049 3.2 2.339-1.438 2.339-3.2 2.339zm0-4.01c-1.4 0-2.53.749-2.53 1.671s1.135 1.671 2.53 1.671 2.529-.749 2.529-1.671-1.136-1.671-2.529-1.671z" data-name="Path 43" transform="translate(-1436 -835)"/></g><g id="Group_64" data-name="Group 64" transform="translate(1279.473 654.576)"><path id="Path_44" d="M1288.341 848.878c-1.842 0-3.341-1.094-3.341-2.439s1.5-2.439 3.341-2.439 3.341 1.095 3.341 2.439-1.498 2.439-3.341 2.439zm0-4.21c-1.474 0-2.673.794-2.673 1.771s1.2 1.771 2.673 1.771 2.673-.794 2.673-1.771-1.198-1.771-2.673-1.771z" data-name="Path 44" transform="translate(-1285 -844)"/></g><path id="Path_52" fill="none" stroke="#000" d="M1401.458 286.969l2.466-.548v1.742l-2.466.45z" data-name="Path 52" transform="translate(-44.161 -4.452)"/></g><g id="Group_75" data-name="Group 75" transform="translate(-25 4710.5)"><path id="Line_8" d="M68 0H0" class="cls-3" data-name="Line 8" transform="translate(996.5 2579.5)"/><circle id="Ellipse_5" cx="5" cy="5" r="5" class="cls-4" data-name="Ellipse 5" transform="translate(992 2574.5)"/></g><g id="Group_985" data-name="Group 985" transform="translate(-25 4788.5)"><path id="Line_8-2" d="M68 0H0" class="cls-3" data-name="Line 8" transform="translate(996.5 2579.5)"/><circle id="Ellipse_5-2" cx="5" cy="5" r="5" class="cls-4" data-name="Ellipse 5" transform="translate(992 2574.5)"/></g><g id="Group_986" data-name="Group 986" transform="translate(-25 4849.5)"><path id="Line_8-3" d="M68 0H0" class="cls-3" data-name="Line 8" transform="translate(996.5 2579.5)"/><circle id="Ellipse_5-3" cx="5" cy="5" r="5" class="cls-4" data-name="Ellipse 5" transform="translate(992 2574.5)"/></g><g id="Group_987" data-name="Group 987" transform="translate(-41 4974.5)"><path id="Line_8-4" d="M84 0H0" class="cls-3" data-name="Line 8" transform="translate(996.5 2579.5)"/><circle id="Ellipse_5-4" cx="5" cy="5" r="5" class="cls-4" data-name="Ellipse 5" transform="translate(992 2574.5)"/></g><g id="Group_988" data-name="Group 988" transform="translate(-72 5138.5)"><path id="Line_8-5" d="M0 0v88" class="cls-3" data-name="Line 8" transform="translate(996.5 2532)"/><circle id="Ellipse_5-5" cx="5" cy="5" r="5" class="cls-4" data-name="Ellipse 5" transform="translate(992 2527.5)"/></g><g id="Group_989" data-name="Group 989" transform="translate(-41 5167.5)"><path id="Line_8-6" d="M0 0h84" class="cls-3" data-name="Line 8" transform="translate(996.5 2532)"/><circle id="Ellipse_5-6" cx="5" cy="5" r="5" class="cls-4" data-name="Ellipse 5" transform="translate(992 2527.5)"/></g></g></svg>