<svg xmlns="http://www.w3.org/2000/svg" width="150" height="150" viewBox="0 0 150 150">
    <g id="icn-ada-compliant" transform="translate(-645 -3014)">
        <g id="Ellipse_11" fill="none" stroke="#2b5cab" data-name="Ellipse 11" transform="translate(645 3014)">
            <circle cx="75" cy="75" r="75" stroke="none"/>
            <circle cx="75" cy="75" r="74.5"/>
        </g>
        <circle id="Ellipse_10" cx="67" cy="67" r="67" fill="#2b5cab" data-name="Ellipse 10" transform="translate(653 3022)"/>
        <text id="ADA" fill="#fff" font-family="AktivGrotesk-Black, Aktiv Grotesk" font-size="36px" font-weight="800" letter-spacing="0.005em" transform="translate(720 3081)">
            <tspan x="-41.202" y="0">ADA</tspan>
        </text>
        <text id="Compliant" fill="#fff" font-family="AktivGroteskCd-Regular, Aktiv Grotesk Cd" font-size="17px" letter-spacing="0.005em" transform="translate(720 3101)">
            <tspan x="-39.636" y="0">COMPLIANT</tspan>
        </text>
        <path id="Icon_map-wheelchair" fill="#fff" d="M9.853 5.084A2.182 2.182 0 1 0 7.671 2.9a2.184 2.184 0 0 0 2.182 2.184zm1.541 20.007a6.781 6.781 0 0 1-6.73-6.839 6.861 6.861 0 0 1 2.359-5.176l-.123-2.14a8.657 8.657 0 0 0 4.49 15.969 8.942 8.942 0 0 0 7.852-5.455l-1.3-1.785a6.741 6.741 0 0 1-6.556 5.426zM24.7 20.9h-1.09l-4.364-6c-.236-.415-1.091-1.637-2.182-1.637h-4.91v-2.178h4.364c.565 0 1.175-.241 1.175-.822s-.594-.815-1.175-.815h-4.364V7.266c-.08-1.21-1.091-1.637-2.177-1.611s-1.642.52-1.642 1.611V14.9c.1 1.225.986 1.637 2.182 1.637h6.546l3.819 4.91c.246.407 1.091 1.637 1.091 1.637H24.7a1.091 1.091 0 0 0 0-2.182z" data-name="Icon map-wheelchair" transform="translate(709.208 3111.188)"/>
    </g>
</svg>
