<svg xmlns="http://www.w3.org/2000/svg" width="44.293" height="44.293" viewBox="0 0 44.293 44.293">
    <path id="Icon_awesome-phone-alt" fill="#fff" d="M43.03 31.3l-9.69-4.153a2.076 2.076 0 0 0-2.422.6l-4.291 5.243A32.066 32.066 0 0 1 11.3 17.658l5.243-4.291a2.071 2.071 0 0 0 .6-2.422l-4.158-9.69a2.09 2.09 0 0 0-2.379-1.2l-9 2.076A2.076 2.076 0 0 0 0 4.152a40.137 40.137 0 0 0 40.141 40.141 2.076 2.076 0 0 0 2.024-1.609l2.076-9A2.1 2.1 0 0 0 43.03 31.3z" data-name="Icon awesome-phone-alt"/>
</svg>
