<svg xmlns="http://www.w3.org/2000/svg" width="350.08" height="646.5" viewBox="0 0 350.08 646.5">
    <defs>
        <style>
            .cls-3{fill:none;stroke:#aaa;stroke-dasharray:5}.cls-4{fill:#ef0000}
        </style>
    </defs>
    <g id="vector-astreea-desktop" transform="translate(-785.421 -10606.005)">
        <g id="vector-astreea-phs" transform="translate(-482.92 10333.005)">
            <g id="Group_48" data-name="Group 48">
                <path id="Path_28" d="M1354 919.5a8.113 8.113 0 0 1-5.313-2.107c-2.091-1.367-75.025-49.017-77.964-50.977-1.492-.994-2.291-1.932-2.375-2.787a1.3 1.3 0 0 1 .152-.784V838c0-2.779.841-3.365 1.3-3.476l62.9-45.928.59.808-63.132 46.1H1270c.041.006-.5.313-.5 2.5v25.207l-.146.147c.005-.005-.038.043 0 .226.044.246.321.933 1.927 2 2.964 1.976 77.246 50.508 78 51l.08.065A7.213 7.213 0 0 0 1354 918.5c2.951 0 37.6-1.979 37.972-2-.036 0 3.8-.981 5.675-2.855 1.988-1.987 63.408-56.692 66.021-59.019s.833-.95.833-3.627c0-2.888-3.959-21.787-5.916-24.723-1.417-2.125-32.963-19.6-53.821-30.837l.474-.88c5.333 2.872 52.168 28.146 54.179 31.163 2.091 3.136 6.084 22.252 6.084 25.277 0 3.117-1.029 4.236-1.146 4.354-.662.589-64.034 57.033-66 59-2.075 2.074-6.064 3.089-6.233 3.131-1.522.097-35.142 2.016-38.122 2.016z" data-name="Path 28"/>
            </g>
            <g id="Group_49" data-name="Group 49">
                <path id="Path_29" d="M1323.793 883.237a4.306 4.306 0 0 1-.816-.073 1.35 1.35 0 0 1-1.067-1.066l-.853-4.267-16.464-8.717-3.194 3.194a.82.82 0 0 1-1.4-.579v-8.47L1334.325 836h2.431l.15.208c.049.069 5.131 6.879 21.681 9.8l.413.072v13.644l-.166.148c-1.097.983-26.165 23.362-35.041 23.365zm-19.386-15.351l17.536 9.283.948 4.733a.355.355 0 0 0 .277.281c7.246 1.386 32.528-20.863 34.832-22.908v-12.357c-15.256-2.779-20.76-8.706-21.745-9.918h-1.58L1301 863.741v7.552z" data-name="Path 29"/>
            </g>
            <g id="Group_50" data-name="Group 50">
                <path id="Path_30" d="M1358.547 857.567l.212 8.77-6.365-1.414 5.587-4.951z" data-name="Path 30"/>
                <path id="Path_31" d="M1359.275 866.964l-7.945-1.767 6.2-5.494 1.421-6.043zm-5.816-2.318l4.785 1.064-.126-5.191z" data-name="Path 31"/>
            </g>
            <g id="Group_51" data-name="Group 51">
                <path id="Path_32" d="M1321.556 878.105l-16.409-9.252-5-5 .707-.707 4.951 4.951 15.64 8.8 36.734-30.777.643.766z" data-name="Path 32"/>
            </g>
            <g id="Group_52" data-name="Group 52">
                <path id="Path_33" d="M1368.452 867.72a61.563 61.563 0 0 1-16.848-2.3l.307-.951c.338.109 33.99 10.6 51.592-14.631l10-568.849 1 .018-10 569.151-.086.124c-9.83 14.194-24.558 17.438-35.965 17.438z" data-name="Path 33"/>
            </g>
            <g id="Group_53" data-name="Group 53">
                <path id="Rectangle_7683" d="M0 0H1V555.058H0z" data-name="Rectangle 7683" transform="rotate(-.826 20189.494 -91836.108)"/>
            </g>
            <g id="Group_54" data-name="Group 54">
                <path id="Path_34" d="M1370.275 290c-21.463 0-44.275-2.979-44.275-8.5s22.812-8.5 44.275-8.5 44.275 2.979 44.275 8.5-22.812 8.5-44.275 8.5zm0-16c-25.5 0-43.275 3.953-43.275 7.5s17.772 7.5 43.275 7.5 43.275-3.953 43.275-7.5-17.773-7.5-43.275-7.5z" data-name="Path 34"/>
            </g>
            <g id="Group_55" data-name="Group 55">
                <path id="Path_35" d="M1401 504h-.032a2 2 0 0 1-1.969-2.031l2-128a2 2 0 0 1 4 .062l-2 128A2 2 0 0 1 1401 504z" data-name="Path 35"/>
            </g>
            <g id="Group_56" data-name="Group 56">
                <path id="Path_36" fill="#fff" d="M1321 311.6h4.4s2.933-13.2 11.733-13.2H1343V294h-5.867s-11.733 0-16.133 17.6z" data-name="Path 36"/>
                <path id="Path_37" d="M1325.8 312.1h-5.443l.156-.621c2.313-9.252 6.679-13.646 9.935-15.7a13.631 13.631 0 0 1 6.684-2.277h6.366v5.4h-6.366c-8.3 0-11.217 12.681-11.245 12.808zm-4.156-1h3.361c.578-2.27 3.8-13.2 12.127-13.2h5.366v-3.4h-5.366a12.919 12.919 0 0 0-6.2 2.158c-3.011 1.917-7.032 5.973-9.286 14.442z" data-name="Path 37"/>
            </g>
            <g id="Group_57" data-name="Group 57">
                <path id="Path_38" d="M1339 288l5 1v11s-1 3-3 2-2-4-2-4h4v-4h-4z" data-name="Path 38"/>
            </g>
            <g id="Group_61" data-name="Group 61">
                <g id="Group_58" data-name="Group 58">
                    <path id="Path_39" d="M1396 350s0-5 2-7 9-5 9-8c0 0 2 5-2 8-4.665 3.5-5 2-9 7z" data-name="Path 39"/>
                </g>
                <g id="Group_59" data-name="Group 59">
                    <path id="Path_40" d="M1396 341s0-7 2.8-9.8 12.6-7 12.6-11.2c0 0 2.8 7-2.8 11.2-6.531 4.9-7 2.8-12.6 9.8z" data-name="Path 40"/>
                </g>
                <g id="Group_60" data-name="Group 60">
                    <path id="Path_41" d="M1396 357s0-4.333 1.733-6.067 7.8-4.333 7.8-6.933c0 0 1.734 4.333-1.733 6.933-4.043 3.032-4.333 1.734-7.8 6.067z" data-name="Path 41"/>
                </g>
            </g>
            <g id="Group_62" data-name="Group 62">
                <path id="Path_42" d="M1370 902.5c-3.032 0-5.5-1.794-5.5-4s2.468-4 5.5-4 5.5 1.794 5.5 4-2.468 4-5.5 4zm0-7c-2.481 0-4.5 1.346-4.5 3s2.019 3 4.5 3 4.5-1.346 4.5-3-2.019-3-4.5-3z" data-name="Path 42"/>
            </g>
            <g id="Group_63" data-name="Group 63">
                <path id="Path_43" d="M1440.786 842c-2.639 0-4.786-1.57-4.786-3.5s2.147-3.5 4.786-3.5 4.785 1.57 4.785 3.5-2.146 3.5-4.785 3.5zm0-6c-2.088 0-3.786 1.121-3.786 2.5s1.7 2.5 3.786 2.5 3.785-1.121 3.785-2.5-1.698-2.5-3.785-2.5z" data-name="Path 43"/>
            </g>
            <g id="Group_64" data-name="Group 64">
                <path id="Path_44" d="M1290 851.3c-2.757 0-5-1.637-5-3.65s2.243-3.65 5-3.65 5 1.638 5 3.65-2.243 3.65-5 3.65zm0-6.3c-2.206 0-4 1.188-4 2.65s1.794 2.65 4 2.65 4-1.189 4-2.65-1.794-2.65-4-2.65z" data-name="Path 44"/>
            </g>
            <path id="Path_52" fill="none" stroke="#000" d="M1401.458 287.241l3.69-.82v2.607l-3.69.674z" data-name="Path 52"/>
        </g>
        <g id="Group_74" data-name="Group 74" transform="translate(-76 8132.006)">
            <path id="Line_8" d="M215 0L0 0" class="cls-3" data-name="Line 8" transform="translate(996.5 2579.5)"/>
            <circle id="Ellipse_5" cx="5" cy="5" r="5" class="cls-4" data-name="Ellipse 5" transform="translate(992 2574.5)"/>
        </g>
        <g id="Group_77" data-name="Group 77" transform="translate(-76 8226.006)">
            <path id="Line_8-2" d="M215 0L0 0" class="cls-3" data-name="Line 8" transform="translate(996.5 2579.5)"/>
            <circle id="Ellipse_5-2" cx="5" cy="5" r="5" class="cls-4" data-name="Ellipse 5" transform="translate(992 2574.5)"/>
        </g>
        <g id="Group_122" data-name="Group 122" transform="translate(-3 8470.006)">
            <path id="Line_8-3" d="M116 0L0 0" class="cls-3" data-name="Line 8" transform="translate(1022.5 2591.5)"/>
            <path id="Line_9" d="M57 0L0 110" class="cls-3" data-name="Line 9" transform="translate(965.5 2591.5)"/>
            <circle id="Ellipse_5-3" cx="5" cy="5" r="5" class="cls-4" data-name="Ellipse 5" transform="translate(960 2696.5)"/>
        </g>
        <g id="Group_78" data-name="Group 78" transform="translate(-105.402 8348.006)">
            <path id="Line_8-4" d="M244.402 0L0 0" class="cls-3" data-name="Line 8" transform="translate(996.5 2579.5)"/>
            <circle id="Ellipse_5-4" cx="5" cy="5" r="5" class="cls-4" data-name="Ellipse 5" transform="translate(992 2574.5)"/>
        </g>
        <g id="Group_76" data-name="Group 76" transform="translate(-147.932 8607.006)">
            <path id="Line_8-5" d="M286.932 0L0 0" class="cls-3" data-name="Line 8" transform="translate(996.5 2579.5)"/>
            <circle id="Ellipse_5-5" cx="5" cy="5" r="5" class="cls-4" data-name="Ellipse 5" transform="translate(992 2574.5)"/>
        </g>
        <g id="Group_75" data-name="Group 75" transform="translate(-76 8038.006)">
            <path id="Line_8-6" d="M215 0L0 0" class="cls-3" data-name="Line 8" transform="translate(996.5 2579.5)"/>
            <circle id="Ellipse_5-6" cx="5" cy="5" r="5" class="cls-4" data-name="Ellipse 5" transform="translate(992 2574.5)"/>
        </g>
    </g>
</svg>
